<svg xmlns="http://www.w3.org/2000/svg" width="24" height="24" viewBox="0 0 24 24" fill="none">
  <g stroke="#000000" stroke-width="1.65" stroke-linecap="round" stroke-linejoin="round">
    <path d="M5 7.25h2.5v10H5a1.5 1.5 0 0 1-1.5-1.5v-7A1.5 1.5 0 0 1 5 7.25ZM19 7.25h-2.5v10H19a1.5 1.5 0 0 0 1.5-1.5v-7A1.5 1.5 0 0 0 19 7.25Z"/>
    <path d="M9.25 3.5h5.5a2 2 0 0 1 2 2v13a2 2 0 0 1-2 2h-5.5a2 2 0 0 1-2-2v-13a2 2 0 0 1 2-2Z"/>
    <path d="m12 7 2.25 2L12 11 9.75 9 12 7ZM9.75 14.5h4.5M10.75 17.25h2.5"/>
  </g>
</svg>
