<?xml version="1.0" encoding="UTF-8"?>
<svg xmlns="http://www.w3.org/2000/svg" xmlns:xlink="http://www.w3.org/1999/xlink" width="768" height="680"
  viewBox="0 0 768 680" role="img" aria-labelledby="title">
  <title id="title">BrewTact Tactical Stack stacked lockup</title>
  <defs>
    <g>
      <g id="glyph-0-0">
        <path d="M 96.832031 -21.441406 C 96.832031 -15.039062 94.070312 -9.867188 88.542969 -5.921875 C 83.019531 -1.972656 74.476562 0 62.910156 0 L 11.199219 0 C 9.324219 0 7.9375 -0.394531 7.039062 -1.183594 C 6.144531 -1.972656 5.695312 -3.03125 5.695312 -4.351562 C 5.695312 -6.65625 6.804688 -8.234375 9.023438 -9.089844 L 11.457031 -9.984375 C 12.566406 -10.410156 13.386719 -10.953125 13.921875 -11.617188 C 14.453125 -12.277344 14.71875 -13.140625 14.71875 -14.207031 L 14.71875 -75.390625 C 14.71875 -76.457031 14.453125 -77.324219 13.921875 -77.984375 C 13.386719 -78.644531 12.566406 -79.1875 11.457031 -79.617188 L 9.023438 -80.511719 C 6.804688 -81.367188 5.695312 -82.945312 5.695312 -85.246094 C 5.695312 -86.613281 6.144531 -87.679688 7.039062 -88.449219 C 7.9375 -89.214844 9.324219 -89.601562 11.199219 -89.601562 L 51.710938 -89.601562 C 60.03125 -89.601562 67.179688 -88.492188 73.152344 -86.273438 C 79.125 -84.054688 83.710938 -80.960938 86.910156 -76.992188 C 90.113281 -73.023438 91.710938 -68.375 91.710938 -63.039062 C 91.710938 -58.730469 90.421875 -54.921875 87.839844 -51.617188 C 85.257812 -48.308594 81.515625 -45.71875 76.609375 -43.839844 C 71.703125 -41.960938 65.75 -41.023438 58.753906 -41.023438 L 61.632812 -43.648438 C 68.628906 -43.648438 74.761719 -42.71875 80.03125 -40.863281 C 85.300781 -39.007812 89.417969 -36.40625 92.382812 -33.054688 C 95.347656 -29.707031 96.832031 -25.835938 96.832031 -21.441406 Z M 52.800781 -37.375 L 36.289062 -37.375 L 36.289062 -44.480469 L 49.664062 -44.480469 C 52.820312 -44.480469 55.457031 -45.078125 57.566406 -46.273438 C 59.679688 -47.464844 61.257812 -49.3125 62.304688 -51.808594 C 63.347656 -54.304688 63.871094 -57.472656 63.871094 -61.3125 C 63.871094 -65.449219 63.167969 -69.003906 61.761719 -71.96875 C 60.351562 -74.933594 58.335938 -77.226562 55.710938 -78.847656 C 53.089844 -80.46875 49.941406 -81.28125 46.273438 -81.28125 L 44.414062 -81.28125 L 44.414062 -15.9375 C 44.414062 -13.332031 45.140625 -11.414062 46.59375 -10.175781 C 48.042969 -8.9375 50.113281 -8.320312 52.800781 -8.320312 L 56.0625 -8.320312 C 58.453125 -8.320312 60.511719 -8.863281 62.238281 -9.953125 C 63.96875 -11.039062 65.300781 -12.640625 66.238281 -14.753906 C 67.179688 -16.863281 67.648438 -19.414062 67.648438 -22.398438 C 67.648438 -27.09375 66.335938 -30.761719 63.710938 -33.40625 C 61.089844 -36.054688 57.449219 -37.375 52.800781 -37.375 Z M 52.800781 -37.375 " />
      </g>
      <g id="glyph-0-1">
        <path d="M 34.238281 -34.945312 C 34.238281 -41.472656 35.09375 -46.859375 36.800781 -51.105469 C 38.507812 -55.347656 40.777344 -58.496094 43.617188 -60.542969 C 46.453125 -62.59375 49.558594 -63.617188 52.929688 -63.617188 C 57.449219 -63.617188 60.917969 -62.261719 63.328125 -59.550781 C 65.738281 -56.84375 66.945312 -52.757812 66.945312 -47.296875 C 66.945312 -41.707031 65.824219 -37.589844 63.585938 -34.945312 C 61.34375 -32.296875 58.433594 -30.976562 54.847656 -30.976562 C 51.222656 -30.976562 48.5 -31.902344 46.6875 -33.761719 C 44.875 -35.617188 43.96875 -38.1875 43.96875 -41.472656 L 43.96875 -44.160156 C 43.925781 -45.269531 43.679688 -46.113281 43.230469 -46.6875 C 42.785156 -47.265625 42.089844 -47.550781 41.152344 -47.550781 C 40.296875 -47.550781 39.542969 -47.179688 38.878906 -46.433594 C 38.21875 -45.683594 37.695312 -44.46875 37.3125 -42.785156 C 36.929688 -41.097656 36.734375 -38.828125 36.734375 -35.96875 Z M 34.945312 -57.855469 L 36.734375 -44.480469 L 36.734375 -13.441406 C 36.734375 -11.945312 36.949219 -10.890625 37.375 -10.273438 C 37.800781 -9.652344 38.785156 -9.195312 40.320312 -8.894531 L 45.183594 -7.9375 C 46.464844 -7.679688 47.402344 -7.230469 48 -6.59375 C 48.597656 -5.953125 48.894531 -5.054688 48.894531 -3.902344 C 48.894531 -2.667969 48.480469 -1.707031 47.648438 -1.023438 C 46.816406 -0.339844 45.589844 0 43.96875 0 L 8.574219 0 C 6.871094 0 5.632812 -0.339844 4.863281 -1.023438 C 4.097656 -1.707031 3.710938 -2.644531 3.710938 -3.839844 C 3.710938 -4.691406 3.925781 -5.441406 4.351562 -6.078125 C 4.777344 -6.71875 5.484375 -7.253906 6.464844 -7.679688 L 7.871094 -8.320312 C 8.511719 -8.617188 8.960938 -9.121094 9.214844 -9.824219 C 9.472656 -10.527344 9.601562 -11.734375 9.601562 -13.441406 L 9.601562 -43.265625 C 9.601562 -44.628906 9.417969 -45.601562 9.054688 -46.175781 C 8.691406 -46.753906 8.148438 -47.148438 7.425781 -47.359375 L 6.015625 -47.808594 C 5.121094 -48.105469 4.46875 -48.535156 4.0625 -49.089844 C 3.660156 -49.644531 3.457031 -50.347656 3.457031 -51.199219 C 3.457031 -52.222656 3.742188 -53.046875 4.320312 -53.664062 C 4.894531 -54.28125 5.929688 -54.871094 7.425781 -55.425781 L 21.183594 -60.800781 C 24.214844 -61.996094 26.390625 -62.761719 27.710938 -63.105469 C 29.035156 -63.445312 30.058594 -63.617188 30.785156 -63.617188 C 31.980469 -63.617188 32.894531 -63.179688 33.535156 -62.304688 C 34.175781 -61.429688 34.644531 -59.945312 34.945312 -57.855469 Z M 34.945312 -57.855469 " />
      </g>
      <g id="glyph-0-2">
        <path d="M 68.542969 -38.910156 C 68.542969 -35.925781 67.734375 -33.609375 66.113281 -31.96875 C 64.492188 -30.324219 62.164062 -29.503906 59.136719 -29.503906 L 21.183594 -29.503906 L 21.183594 -36.160156 L 38.273438 -36.160156 C 40.617188 -36.160156 41.792969 -37.269531 41.792969 -39.488281 C 41.792969 -44.863281 41.171875 -48.703125 39.9375 -51.007812 C 38.699219 -53.3125 37.054688 -54.464844 35.007812 -54.464844 C 33.515625 -54.464844 32.171875 -53.910156 30.976562 -52.800781 C 29.78125 -51.691406 28.832031 -49.996094 28.128906 -47.710938 C 27.425781 -45.429688 27.070312 -42.539062 27.070312 -39.039062 C 27.070312 -31.273438 28.820312 -25.589844 32.320312 -21.984375 C 35.820312 -18.378906 40.597656 -16.574219 46.65625 -16.574219 C 49.472656 -16.574219 52.03125 -16.894531 54.335938 -17.535156 C 56.640625 -18.175781 58.902344 -19.476562 61.121094 -21.441406 C 62.355469 -22.550781 63.296875 -23.296875 63.9375 -23.679688 C 64.574219 -24.0625 65.195312 -24.257812 65.792969 -24.257812 C 66.644531 -24.257812 67.273438 -23.828125 67.679688 -22.976562 C 68.085938 -22.121094 68.289062 -21.078125 68.289062 -19.839844 C 68.289062 -16.042969 66.996094 -12.492188 64.414062 -9.183594 C 61.835938 -5.878906 58.25 -3.222656 53.664062 -1.214844 C 49.078125 0.789062 43.734375 1.792969 37.632812 1.792969 C 31.105469 1.792969 25.238281 0.5 20.03125 -2.078125 C 14.828125 -4.660156 10.710938 -8.265625 7.679688 -12.894531 C 4.652344 -17.523438 3.136719 -22.933594 3.136719 -29.121094 C 3.136719 -36.074219 4.523438 -42.132812 7.296875 -47.296875 C 10.070312 -52.457031 14.113281 -56.46875 19.425781 -59.328125 C 24.734375 -62.1875 31.148438 -63.617188 38.65625 -63.617188 C 45.269531 -63.617188 50.792969 -62.550781 55.230469 -60.414062 C 59.667969 -58.28125 62.996094 -55.359375 65.214844 -51.648438 C 67.433594 -47.9375 68.542969 -43.691406 68.542969 -38.910156 Z M 68.542969 -38.910156 " />
      </g>
      <g id="glyph-0-3">
        <path d="M 40.257812 0 L 30.527344 0 C 28.691406 0 27.105469 -0.425781 25.761719 -1.28125 C 24.414062 -2.132812 23.359375 -3.605469 22.59375 -5.695312 L 6.527344 -49.214844 C 5.972656 -50.792969 5.484375 -51.839844 5.054688 -52.351562 C 4.628906 -52.863281 4.179688 -53.226562 3.710938 -53.441406 L 2.367188 -54.078125 C 1.515625 -54.507812 0.894531 -55.007812 0.511719 -55.585938 C 0.128906 -56.160156 -0.0625 -56.917969 -0.0625 -57.855469 C -0.0625 -59.050781 0.351562 -59.988281 1.183594 -60.671875 C 2.015625 -61.355469 3.15625 -61.695312 4.609375 -61.695312 L 36.992188 -61.695312 C 38.398438 -61.695312 39.519531 -61.355469 40.351562 -60.671875 C 41.183594 -59.988281 41.601562 -59.050781 41.601562 -57.855469 C 41.601562 -56.917969 41.355469 -56.160156 40.863281 -55.585938 C 40.375 -55.007812 39.574219 -54.550781 38.464844 -54.207031 L 36.734375 -53.695312 C 35.796875 -53.398438 35.242188 -52.757812 35.070312 -51.777344 C 34.902344 -50.792969 35.308594 -48.851562 36.289062 -45.953125 L 47.230469 -13.824219 L 40.640625 -8.769531 L 55.617188 -48.769531 L 63.359375 -43.839844 L 48.191406 -5.121094 C 47.382812 -3.070312 46.261719 -1.707031 44.832031 -1.023438 C 43.402344 -0.339844 41.878906 0 40.257812 0 Z M 83.902344 0 L 74.558594 0 C 72.769531 0 71.179688 -0.4375 69.792969 -1.3125 C 68.40625 -2.1875 67.347656 -3.648438 66.625 -5.695312 L 51.390625 -49.214844 C 50.835938 -50.792969 50.347656 -51.839844 49.921875 -52.351562 C 49.492188 -52.863281 49.046875 -53.226562 48.574219 -53.441406 L 47.230469 -54.078125 C 46.378906 -54.507812 45.761719 -55.007812 45.375 -55.585938 C 44.992188 -56.160156 44.800781 -56.917969 44.800781 -57.855469 C 44.800781 -60.414062 46.355469 -61.695312 49.472656 -61.695312 L 81.089844 -61.695312 C 84.160156 -61.695312 85.695312 -60.414062 85.695312 -57.855469 C 85.695312 -56.917969 85.460938 -56.136719 84.992188 -55.519531 C 84.523438 -54.902344 83.863281 -54.507812 83.007812 -54.335938 L 80.191406 -53.824219 C 79.253906 -53.652344 78.730469 -53.003906 78.625 -51.871094 C 78.515625 -50.742188 78.910156 -48.789062 79.808594 -46.015625 L 90.175781 -13.824219 L 84.222656 -8.769531 L 95.296875 -44.222656 C 96.40625 -47.636719 96.90625 -49.996094 96.800781 -51.296875 C 96.691406 -52.597656 96.085938 -53.398438 94.976562 -53.695312 L 93.246094 -54.207031 C 92.179688 -54.550781 91.390625 -55.007812 90.878906 -55.585938 C 90.367188 -56.160156 90.113281 -56.917969 90.113281 -57.855469 C 90.113281 -59.050781 90.527344 -59.988281 91.359375 -60.671875 C 92.191406 -61.355469 93.3125 -61.695312 94.71875 -61.695312 L 109.566406 -61.695312 C 111.019531 -61.695312 112.160156 -61.355469 112.992188 -60.671875 C 113.824219 -59.988281 114.238281 -59.050781 114.238281 -57.855469 C 114.238281 -57.046875 114.046875 -56.332031 113.664062 -55.710938 C 113.28125 -55.09375 112.535156 -54.59375 111.425781 -54.207031 L 110.207031 -53.761719 C 109.441406 -53.460938 108.726562 -52.660156 108.0625 -51.359375 C 107.402344 -50.058594 106.558594 -47.9375 105.535156 -44.992188 L 91.839844 -5.121094 C 91.15625 -3.113281 90.070312 -1.761719 88.574219 -1.054688 C 87.082031 -0.351562 85.523438 0 83.902344 0 Z M 83.902344 0 " />
      </g>
      <g id="glyph-0-4">
        <path d="M 26.304688 -89.601562 L 69.183594 -89.601562 C 71.148438 -89.601562 72.820312 -89.769531 74.207031 -90.113281 C 75.59375 -90.453125 76.84375 -90.785156 77.953125 -91.105469 C 79.0625 -91.425781 80.171875 -91.585938 81.28125 -91.585938 C 83.371094 -91.585938 84.929688 -91.082031 85.953125 -90.078125 C 86.976562 -89.078125 87.808594 -87.382812 88.449219 -84.992188 L 92.542969 -63.679688 C 92.886719 -61.972656 92.746094 -60.585938 92.128906 -59.519531 C 91.507812 -58.453125 90.453125 -57.792969 88.960938 -57.535156 C 87.59375 -57.238281 86.390625 -57.324219 85.34375 -57.792969 C 84.296875 -58.261719 83.414062 -59.222656 82.6875 -60.671875 C 80.171875 -65.707031 78.015625 -69.609375 76.222656 -72.382812 C 74.433594 -75.15625 72.746094 -77.109375 71.167969 -78.238281 C 69.589844 -79.371094 67.820312 -79.9375 65.855469 -79.9375 L 62.59375 -79.9375 L 62.59375 -14.207031 C 62.59375 -13.140625 62.871094 -12.277344 63.425781 -11.617188 C 63.980469 -10.953125 64.789062 -10.410156 65.855469 -9.984375 L 68.289062 -9.089844 C 70.507812 -8.234375 71.617188 -6.65625 71.617188 -4.351562 C 71.617188 -1.449219 69.78125 0 66.113281 0 L 29.375 0 C 27.5 0 26.113281 -0.394531 25.214844 -1.183594 C 24.320312 -1.972656 23.871094 -3.03125 23.871094 -4.351562 C 23.871094 -6.65625 24.980469 -8.234375 27.199219 -9.089844 L 29.632812 -9.984375 C 30.742188 -10.410156 31.5625 -10.953125 32.097656 -11.617188 C 32.628906 -12.277344 32.894531 -13.140625 32.894531 -14.207031 L 32.894531 -79.9375 L 29.632812 -79.9375 C 27.710938 -79.9375 25.953125 -79.371094 24.351562 -78.238281 C 22.753906 -77.109375 21.054688 -75.15625 19.265625 -72.382812 C 17.472656 -69.609375 15.316406 -65.707031 12.800781 -60.671875 C 12.074219 -59.222656 11.1875 -58.261719 10.144531 -57.792969 C 9.097656 -57.324219 7.894531 -57.238281 6.527344 -57.535156 C 5.078125 -57.792969 4.042969 -58.453125 3.425781 -59.519531 C 2.804688 -60.585938 2.644531 -61.972656 2.945312 -63.679688 L 7.039062 -84.992188 C 7.679688 -87.382812 8.511719 -89.078125 9.535156 -90.078125 C 10.558594 -91.082031 12.117188 -91.585938 14.207031 -91.585938 C 15.316406 -91.585938 16.425781 -91.425781 17.535156 -91.105469 C 18.644531 -90.785156 19.894531 -90.453125 21.28125 -90.113281 C 22.667969 -89.769531 24.339844 -89.601562 26.304688 -89.601562 Z M 26.304688 -89.601562 " />
      </g>
      <g id="glyph-0-5">
        <path d="M 42.625 -8.769531 L 42.625 -10.238281 L 40.574219 -10.304688 L 40.574219 -51.648438 C 40.574219 -53.269531 40.136719 -54.570312 39.265625 -55.550781 C 38.390625 -56.535156 37.207031 -57.023438 35.710938 -57.023438 C 34.601562 -57.023438 33.632812 -56.757812 32.800781 -56.222656 C 31.96875 -55.691406 31.550781 -54.976562 31.550781 -54.078125 L 31.550781 -47.105469 C 31.550781 -43.519531 30.324219 -40.746094 27.871094 -38.785156 C 25.417969 -36.820312 21.910156 -35.839844 17.34375 -35.839844 C 13.460938 -35.839844 10.570312 -36.660156 8.671875 -38.304688 C 6.773438 -39.945312 5.824219 -42.238281 5.824219 -45.183594 C 5.824219 -48 7.105469 -50.816406 9.664062 -53.632812 C 12.222656 -56.449219 16.074219 -58.792969 21.214844 -60.671875 C 26.355469 -62.550781 32.832031 -63.488281 40.640625 -63.488281 C 49.683594 -63.488281 56.40625 -61.835938 60.800781 -58.527344 C 65.195312 -55.222656 67.390625 -50.710938 67.390625 -44.992188 L 67.390625 -14.398438 C 67.390625 -13.589844 67.59375 -12.917969 68 -12.382812 C 68.40625 -11.851562 69.035156 -11.585938 69.886719 -11.585938 C 70.613281 -11.585938 71.199219 -11.777344 71.648438 -12.160156 C 72.097656 -12.542969 72.511719 -12.929688 72.894531 -13.3125 C 73.195312 -13.609375 73.503906 -13.867188 73.824219 -14.078125 C 74.144531 -14.292969 74.515625 -14.398438 74.945312 -14.398438 C 75.667969 -14.398438 76.191406 -14.132812 76.511719 -13.601562 C 76.832031 -13.066406 76.992188 -12.394531 76.992188 -11.585938 C 76.992188 -9.707031 76.308594 -7.734375 74.945312 -5.664062 C 73.578125 -3.59375 71.542969 -1.835938 68.832031 -0.382812 C 66.121094 1.066406 62.761719 1.792969 58.753906 1.792969 C 54.015625 1.792969 50.144531 0.789062 47.136719 -1.214844 C 44.128906 -3.222656 42.625 -5.738281 42.625 -8.769531 Z M 3.519531 -13.632812 C 3.519531 -19.476562 6.164062 -24.097656 11.457031 -27.488281 C 16.746094 -30.878906 24.171875 -32.574219 33.726562 -32.574219 C 36.246094 -32.574219 38.441406 -32.40625 40.320312 -32.0625 C 42.199219 -31.722656 43.734375 -31.230469 44.929688 -30.59375 L 42.753906 -25.023438 C 41.855469 -25.535156 41.011719 -25.898438 40.222656 -26.113281 C 39.433594 -26.324219 38.570312 -26.433594 37.632812 -26.433594 C 35.542969 -26.433594 33.886719 -25.738281 32.671875 -24.351562 C 31.457031 -22.964844 30.847656 -20.96875 30.847656 -18.367188 C 30.847656 -15.636719 31.445312 -13.558594 32.640625 -12.128906 C 33.835938 -10.699219 35.414062 -9.984375 37.375 -9.984375 C 38.613281 -9.984375 39.777344 -10.273438 40.863281 -10.847656 C 41.953125 -11.425781 42.773438 -12.097656 43.328125 -12.863281 L 44.863281 -7.742188 C 42.816406 -4.714844 39.839844 -2.367188 35.9375 -0.703125 C 32.03125 0.960938 27.863281 1.792969 23.425781 1.792969 C 17.449219 1.792969 12.640625 0.320312 8.992188 -2.625 C 5.34375 -5.566406 3.519531 -9.238281 3.519531 -13.632812 Z M 3.519531 -13.632812 " />
      </g>
      <g id="glyph-0-6">
        <path d="M 67.390625 -43.839844 C 67.390625 -40.597656 66.164062 -37.84375 63.710938 -35.585938 C 61.257812 -33.324219 57.984375 -32.191406 53.886719 -32.191406 C 49.921875 -32.191406 46.945312 -33.246094 44.960938 -35.359375 C 42.976562 -37.472656 41.984375 -40.171875 41.984375 -43.457031 L 41.984375 -45.503906 C 41.984375 -48.277344 41.40625 -50.464844 40.257812 -52.0625 C 39.105469 -53.664062 37.589844 -54.464844 35.710938 -54.464844 C 34.21875 -54.464844 32.820312 -53.910156 31.519531 -52.800781 C 30.21875 -51.691406 29.164062 -49.996094 28.351562 -47.710938 C 27.542969 -45.429688 27.136719 -42.539062 27.136719 -39.039062 C 27.136719 -34.089844 27.980469 -29.953125 29.664062 -26.625 C 31.347656 -23.296875 33.664062 -20.789062 36.609375 -19.105469 C 39.550781 -17.417969 42.902344 -16.574219 46.65625 -16.574219 C 49.386719 -16.574219 51.851562 -16.90625 54.046875 -17.566406 C 56.246094 -18.230469 58.433594 -19.519531 60.609375 -21.441406 C 61.84375 -22.550781 62.785156 -23.296875 63.425781 -23.679688 C 64.0625 -24.0625 64.683594 -24.257812 65.28125 -24.257812 C 66.132812 -24.257812 66.761719 -23.828125 67.167969 -22.976562 C 67.574219 -22.121094 67.777344 -21.078125 67.777344 -19.839844 C 67.777344 -16.042969 66.507812 -12.492188 63.96875 -9.183594 C 61.429688 -5.878906 57.898438 -3.222656 53.375 -1.214844 C 48.851562 0.789062 43.605469 1.792969 37.632812 1.792969 C 31.105469 1.792969 25.246094 0.5 20.0625 -2.078125 C 14.878906 -4.660156 10.773438 -8.265625 7.742188 -12.894531 C 4.714844 -17.523438 3.199219 -22.933594 3.199219 -29.121094 C 3.199219 -35.734375 4.660156 -41.644531 7.585938 -46.847656 C 10.507812 -52.054688 14.644531 -56.148438 20 -59.136719 C 25.355469 -62.121094 31.679688 -63.617188 38.976562 -63.617188 C 44.820312 -63.617188 49.867188 -62.730469 54.113281 -60.960938 C 58.355469 -59.1875 61.632812 -56.8125 63.9375 -53.824219 C 66.238281 -50.835938 67.390625 -47.507812 67.390625 -43.839844 Z M 67.390625 -43.839844 " />
      </g>
      <g id="glyph-0-7">
        <path d="M 6.144531 -53.375 L 4.097656 -54.207031 C 3.15625 -54.59375 2.453125 -55.082031 1.984375 -55.679688 C 1.515625 -56.277344 1.28125 -57.003906 1.28125 -57.855469 C 1.28125 -59.09375 1.695312 -60.042969 2.527344 -60.703125 C 3.359375 -61.367188 4.4375 -61.695312 5.761719 -61.695312 L 9.28125 -61.695312 C 10.089844 -61.695312 10.847656 -61.910156 11.550781 -62.335938 C 12.257812 -62.761719 13.164062 -63.53125 14.273438 -64.640625 L 24.703125 -75.199219 C 26.113281 -76.609375 27.425781 -77.652344 28.640625 -78.335938 C 29.855469 -79.019531 31.019531 -79.359375 32.128906 -79.359375 C 33.367188 -79.359375 34.335938 -78.953125 35.039062 -78.144531 C 35.742188 -77.332031 36.097656 -76.160156 36.097656 -74.625 L 36.097656 -23.296875 C 36.097656 -20.179688 36.628906 -17.8125 37.695312 -16.191406 C 38.761719 -14.570312 40.296875 -13.761719 42.304688 -13.761719 C 43.925781 -13.761719 45.171875 -14.164062 46.046875 -14.976562 C 46.921875 -15.785156 47.625 -16.714844 48.160156 -17.761719 C 48.691406 -18.804688 49.257812 -19.734375 49.855469 -20.542969 C 50.453125 -21.355469 51.265625 -21.761719 52.289062 -21.761719 C 53.140625 -21.761719 53.824219 -21.460938 54.335938 -20.863281 C 54.847656 -20.265625 55.105469 -19.242188 55.105469 -17.792969 C 55.105469 -14.164062 54.058594 -10.871094 51.96875 -7.902344 C 49.878906 -4.9375 46.996094 -2.582031 43.328125 -0.832031 C 39.660156 0.917969 35.476562 1.792969 30.785156 1.792969 C 23.828125 1.792969 18.453125 0.117188 14.65625 -3.230469 C 10.859375 -6.582031 8.960938 -11.648438 8.960938 -18.433594 L 8.960938 -49.214844 C 8.960938 -50.453125 8.734375 -51.347656 8.289062 -51.902344 C 7.839844 -52.457031 7.125 -52.949219 6.144531 -53.375 Z M 26.753906 -52.609375 L 26.753906 -61.695312 L 50.113281 -61.695312 C 51.433594 -61.695312 52.492188 -61.40625 53.28125 -60.832031 C 54.070312 -60.257812 54.464844 -59.433594 54.464844 -58.367188 C 54.464844 -56.746094 53.675781 -55.382812 52.097656 -54.273438 C 50.515625 -53.164062 47.914062 -52.609375 44.289062 -52.609375 Z M 26.753906 -52.609375 " />
      </g>
    </g>
  </defs>
  <g transform="translate(224 52) scale(1.25)">
  <g id="tactical-stack-mark">
    <path fill="#C58B2A" d="M44 52L178 89Q190 92 190 105V132Q190 140 183 144L153 161V130L160 126V114L76 91V125L112 145L84 162L52 144Q44 139 44 130Z"/>
    <path fill="#E0A93B" d="M44 52L178 89Q190 92 190 105V114L160 114L76 91V101L44 92Z"/>
    <path fill="#8E641B" d="M76 101V125L112 145L84 162L52 144Q44 139 44 130V113Z"/>
    <path fill="#6FA8DC" d="M107 144L160 116L190 125V154L146 178V207L114 226V176L86 191V160Z"/>
    <path fill="#3E5F8A" d="M146 178V207L114 226V176Z"/>
  </g>
  </g>
  <g transform="translate(60 454) scale(1.0015)">
<g>
    <use xlink:href="#glyph-0-0" x="0" y="125.1875" fill="#F3EFE3" />
    <use xlink:href="#glyph-0-1" x="99.078125" y="125.1875" fill="#F3EFE3" />
    <use xlink:href="#glyph-0-2" x="167.5625" y="125.1875" fill="#F3EFE3" />
    <use xlink:href="#glyph-0-3" x="239.25" y="125.1875" fill="#F3EFE3" />
    <use xlink:href="#glyph-0-4" x="353.171875" y="125.1875" fill="#E0A93B" />
    <use xlink:href="#glyph-0-5" x="442.25" y="125.1875" fill="#E0A93B" />
    <use xlink:href="#glyph-0-6" x="519.234375" y="125.1875" fill="#E0A93B" />
    <use xlink:href="#glyph-0-7" x="590.59375" y="125.1875" fill="#E0A93B" />
  </g>
  </g>
</svg>
