<svg width="390" height="844" fill="none" xmlns="http://www.w3.org/2000/svg"><g clip-path="url(#a)"><path fill="#000" d="M0 0h390v844H0z"/><rect x="201" y="624" width="201" height="189" rx="16" transform="rotate(-90 201 624)" fill="#9A001B" style="fill:#9a001b;fill:color(display-p3 .603 0 .1077);fill-opacity:1"/><g opacity=".3" clip-path="url(#b)"><path d="M296 608.08v-18" stroke="#fff" style="stroke:#fff;stroke-opacity:1" stroke-width="6" stroke-linecap="round"/></g><g opacity=".3"><g clip-path="url(#c)"><path d="M296 456.15v-18" stroke="#fff" style="stroke:#fff;stroke-opacity:1" stroke-width="6" stroke-linecap="round"/></g><g clip-path="url(#d)"><path d="M305 447.15h-18" stroke="#fff" style="stroke:#fff;stroke-opacity:1" stroke-width="6" stroke-linecap="round"/></g></g><rect x="201" y="411" width="201" height="189" rx="16" transform="rotate(-90 201 411)" fill="#9A001B" style="fill:#9a001b;fill:color(display-p3 .603 0 .1077);fill-opacity:1"/><g opacity=".3" clip-path="url(#e)"><path d="M296 395.08v-18" stroke="#fff" style="stroke:#fff;stroke-opacity:1" stroke-width="6" stroke-linecap="round"/></g><g opacity=".3"><g clip-path="url(#f)"><path d="M296 243.15v-18" stroke="#fff" style="stroke:#fff;stroke-opacity:1" stroke-width="6" stroke-linecap="round"/></g><g clip-path="url(#g)"><path d="M305 234.15h-18" stroke="#fff" style="stroke:#fff;stroke-opacity:1" stroke-width="6" stroke-linecap="round"/></g></g><rect x="189" y="208" width="416" height="189" rx="16" transform="rotate(90 189 208)" fill="#9D5BAE" style="fill:#9d5bae;fill:color(display-p3 .6159 .3559 .6808);fill-opacity:1"/><g opacity=".3" clip-path="url(#h)"><path d="M94 274v18" stroke="#fff" style="stroke:#fff;stroke-opacity:1" stroke-width="6" stroke-linecap="round"/></g><g opacity=".3"><g clip-path="url(#i)"><path d="M94 540v18" stroke="#fff" style="stroke:#fff;stroke-opacity:1" stroke-width="6" stroke-linecap="round"/></g><g clip-path="url(#j)"><path d="M85 549h18" stroke="#fff" style="stroke:#fff;stroke-opacity:1" stroke-width="6" stroke-linecap="round"/></g></g><rect y="637.8" width="390" height="206.2" rx="16" fill="#33323D" style="fill:#33323d;fill:color(display-p3 .2 .1961 .2392);fill-opacity:1"/><rect x="390" y="198" width="390" height="198.19" rx="16" transform="rotate(-180 390 198)" fill="#A86F00" style="fill:#a86f00;fill:color(display-p3 .6604 .4359 0);fill-opacity:1"/><g opacity=".3" clip-path="url(#k)"><path d="M328.69 97.94h-18" stroke="#fff" style="stroke:#fff;stroke-opacity:1" stroke-width="6" stroke-linecap="round"/></g><g opacity=".3"><g clip-path="url(#l)"><path d="M79.31 97.94h-18" stroke="#fff" style="stroke:#fff;stroke-opacity:1" stroke-width="6" stroke-linecap="round"/></g><g clip-path="url(#m)"><path d="M70.31 89.83v18" stroke="#fff" style="stroke:#fff;stroke-opacity:1" stroke-width="6" stroke-linecap="round"/></g></g><rect x="106" y="769" width="177" height="44" rx="22" fill="#FFB900" style="fill:#ffb900;fill:color(display-p3 1 .7263 0);fill-opacity:1"/><path d="M54.8 717.08a12.78 12.78 0 0 1-9.52-12.45V678.5c0-5.84 3.92-10.99 9.53-12.45a12.73 12.73 0 0 1 14.52 6c1.15 1.76.46 3.92-1.3 5.07-1.77 1-3.93.38-5.08-1.38a5.44 5.44 0 0 0-6.22-2.54 5.51 5.51 0 0 0-4.08 5.3v26.13a5.6 5.6 0 0 0 4.08 5.38c2.46.61 5-.47 6.22-2.62 1.15-1.76 3.3-2.38 5.07-1.38 1.77 1.15 2.46 3.3 1.3 5.07a12.72 12.72 0 0 1-14.51 6Zm32.95.46c-7.14 0-12.9-5.77-12.9-12.91V678.5c0-7.14 5.76-12.9 12.9-12.9 7.15 0 12.91 5.75 12.91 12.9v26.13c0 7.14-5.76 12.9-12.9 12.9Zm0-44.57a5.51 5.51 0 0 0-5.53 5.53v26.13a5.51 5.51 0 0 0 5.53 5.53 5.51 5.51 0 0 0 5.54-5.53V678.5a5.51 5.51 0 0 0-5.54-5.53Zm23.67 44.57a3.64 3.64 0 0 1-3.69-3.7v-44.56a3.56 3.56 0 0 1 2.85-3.61 3.59 3.59 0 0 1 4.15 2.07c1 2.23 2.07 4.46 3.15 6.69 1.76 3.92 4.07 8.53 5.84 12.3 1.76-3.77 4-8.38 5.76-12.3 1-2.23 2.08-4.46 3.15-6.69.85-1.61 2.38-2.46 4.15-2.07a3.63 3.63 0 0 1 2.92 3.61v44.57a3.64 3.64 0 0 1-3.69 3.69 3.64 3.64 0 0 1-3.69-3.7V685.8c-1.3 2.77-2.61 5.53-3.6 7.6-.55 1.24-1.16 2.4-1.7 3.54a3.62 3.62 0 0 1-3.3 2.15 3.4 3.4 0 0 1-3.38-2.15c-.54-1.15-1.16-2.3-1.7-3.53-1-2.08-2.3-4.84-3.53-7.6v28.04a3.64 3.64 0 0 1-3.69 3.69Zm39.92 0a3.64 3.64 0 0 1-3.69-3.7v-44.56a3.56 3.56 0 0 1 2.85-3.61 3.59 3.59 0 0 1 4.15 2.07c1 2.23 2.07 4.46 3.15 6.69 1.77 3.92 4.07 8.53 5.84 12.3 1.77-3.77 4-8.38 5.76-12.3 1-2.23 2.08-4.46 3.15-6.69.85-1.61 2.38-2.46 4.15-2.07a3.63 3.63 0 0 1 2.92 3.61v44.57a3.64 3.64 0 0 1-3.69 3.69 3.64 3.64 0 0 1-3.69-3.7V685.8a822.2 822.2 0 0 1-3.6 7.6c-.54 1.24-1.16 2.4-1.7 3.54a3.62 3.62 0 0 1-3.3 2.15c-1.61 0-2.7-.69-3.38-2.15-.54-1.15-1.16-2.3-1.7-3.53-1-2.08-2.3-4.84-3.53-7.6v28.04a3.64 3.64 0 0 1-3.69 3.69Zm64.67-4.7c.54 2.08-.62 4-2.54 4.54-2.07.54-4-.61-4.53-2.53-.23-.62-.38-1.39-.62-2.23-.38-1.46-1-3.46-1.6-5.84h-13.07c-.7 2.38-1.23 4.38-1.62 5.84-.23.84-.38 1.61-.61 2.23a3.65 3.65 0 0 1-4.53 2.53 3.65 3.65 0 0 1-2.54-4.53l12.3-44.57a3.5 3.5 0 0 1 3.53-2.69 3.5 3.5 0 0 1 3.53 2.7l12.3 44.56Zm-11.37-13.44c-1.46-5.3-3-11.22-4.46-16.21-1.46 5-3 10.91-4.46 16.21h8.92Zm42.16 18.06a3.63 3.63 0 0 1-4.16-2 495.5 495.5 0 0 0-4.84-10.06c-2.84-5.84-6.53-13.3-9.68-19.98v28.43a3.64 3.64 0 0 1-3.69 3.69 3.64 3.64 0 0 1-3.69-3.7v-44.56a3.56 3.56 0 0 1 2.85-3.61c1.77-.39 3.3.46 4.15 2 1.53 3.3 3.15 6.6 4.84 10.06 2.84 5.84 6.38 13.3 9.68 19.98v-28.43a3.64 3.64 0 0 1 3.69-3.69 3.64 3.64 0 0 1 3.69 3.69v44.57a3.71 3.71 0 0 1-2.84 3.61Zm23.77-51.56a12.9 12.9 0 0 1 12.92 12.9v25.52c0 7.15-5.77 12.9-12.92 12.9h-9.22a3.64 3.64 0 0 1-3.68-3.68V669.6a3.64 3.64 0 0 1 3.68-3.7h9.22Zm5.54 12.9a5.51 5.51 0 0 0-5.54-5.52h-5.53v36.57h5.53a5.51 5.51 0 0 0 5.54-5.53v-25.51Zm14.42-9.21a3.64 3.64 0 0 1 3.7-3.7h15.36a3.64 3.64 0 0 1 3.69 3.7 3.64 3.64 0 0 1-3.69 3.69h-11.68v13.83h10.14a3.64 3.64 0 0 1 3.7 3.69 3.64 3.64 0 0 1-3.7 3.68h-10.14v15.37h11.68a3.64 3.64 0 0 1 3.69 3.7 3.64 3.64 0 0 1-3.69 3.68h-15.37a3.64 3.64 0 0 1-3.69-3.69V669.6Zm54.11 13.52c0 5-2.69 9.3-6.91 11.45l6.68 17.98a3.58 3.58 0 0 1-2.15 4.77 3.75 3.75 0 0 1-4.76-2.15l-7.15-19.14h-4.15v17.83a3.64 3.64 0 0 1-3.69 3.69 3.64 3.64 0 0 1-3.69-3.7V669.6a3.64 3.64 0 0 1 3.7-3.7h9.21a12.9 12.9 0 0 1 12.91 12.92v4.3Zm-18.44 5.53h5.53a5.5 5.5 0 0 0 5.54-5.53v-4.3a5.5 5.5 0 0 0-5.54-5.53h-5.53v15.36Zm-272.97 39.3a6.2 6.2 0 0 1 6.2 6.2v12.25a6.2 6.2 0 0 1-6.2 6.2H48.8c-1 0-1.77-.77-1.77-1.77v-21.1c0-1 .78-1.78 1.77-1.78h4.43Zm2.66 6.2a2.65 2.65 0 0 0-2.66-2.65h-2.66v17.56h2.66a2.65 2.65 0 0 0 2.66-2.66v-12.25ZM76.1 750.5c.25 1-.3 1.92-1.22 2.17-1 .26-1.92-.3-2.18-1.21-.1-.3-.18-.67-.3-1.07-.18-.7-.47-1.66-.77-2.8h-6.27c-.33 1.14-.6 2.1-.78 2.8-.1.4-.18.77-.3 1.07a1.75 1.75 0 0 1-2.17 1.21 1.75 1.75 0 0 1-1.22-2.17l5.9-21.4c.2-.78.86-1.3 1.7-1.3.85 0 1.52.52 1.7 1.3l5.9 21.4Zm-5.47-6.46c-.7-2.55-1.43-5.39-2.14-7.78-.7 2.4-1.43 5.23-2.14 7.78h4.28Zm9.51 8.7c-1 0-1.77-.77-1.77-1.76v-21.4c0-.85.52-1.55 1.37-1.74.84-.18 1.66.22 1.99 1 .48 1.07 1 2.14 1.51 3.2.85 1.89 1.96 4.1 2.8 5.91.85-1.8 1.92-4.02 2.77-5.9.48-1.07 1-2.14 1.52-3.21.4-.78 1.14-1.18 1.99-1 .85.19 1.4.89 1.4 1.74v21.4c0 1-.78 1.77-1.77 1.77-1 0-1.77-.78-1.77-1.77V737.5l-1.74 3.65c-.26.6-.55 1.15-.8 1.7-.3.63-.9 1.03-1.6 1.03-.77 0-1.29-.33-1.62-1.03-.26-.55-.55-1.1-.81-1.7-.48-1-1.1-2.32-1.7-3.65v13.47c0 1-.77 1.77-1.77 1.77Zm31.05-2.24c.26 1-.3 1.92-1.22 2.17-1 .26-1.92-.3-2.17-1.21-.11-.3-.19-.67-.3-1.07-.18-.7-.48-1.66-.77-2.8h-6.27c-.34 1.14-.6 2.1-.78 2.8-.11.4-.18.77-.3 1.07a1.75 1.75 0 0 1-2.17 1.21A1.75 1.75 0 0 1 96 750.5l5.9-21.4c.19-.78.85-1.3 1.7-1.3s1.51.52 1.7 1.3l5.9 21.4Zm-5.46-6.46c-.7-2.55-1.44-5.39-2.14-7.78-.7 2.4-1.44 5.23-2.14 7.78h4.28Zm17.92-5.17c1 0 1.77.78 1.77 1.78v5.9a6.19 6.19 0 1 1-12.4 0V734c0-2.8 1.85-5.27 4.61-5.97 2.7-.7 5.58.4 6.98 2.88.48.84.18 1.88-.67 2.43-.84.48-1.91.18-2.4-.66a2.65 2.65 0 0 0-2.98-1.22c-1.18.3-2 1.36-2 2.54v12.55a2.67 2.67 0 0 0 2.66 2.66 2.65 2.65 0 0 0 2.66-2.66v-4.13h-1.92c-1 0-1.77-.78-1.77-1.77 0-1 .77-1.78 1.77-1.78h3.69Zm5.02-9.15c0-1 .78-1.77 1.77-1.77h7.38c1 0 1.77.78 1.77 1.77 0 1-.77 1.77-1.77 1.77h-5.6v6.65h4.86c1 0 1.78.77 1.78 1.77s-.78 1.77-1.78 1.77h-4.87v7.38h5.61c1 0 1.77.77 1.77 1.77s-.77 1.77-1.77 1.77h-7.38c-1 0-1.77-.77-1.77-1.77v-21.1Zm26.18 23.03c-1 0-1.77-.78-1.77-1.77V740.3l-4.98-9.92a1.79 1.79 0 0 1 .81-2.4 1.76 1.76 0 0 1 2.36.81l1.22 2.44c.7 1.44 1.59 3.2 2.36 4.72.74-1.51 1.66-3.28 2.36-4.72l1.22-2.44a1.76 1.76 0 0 1 2.36-.81c.89.44 1.26 1.51.81 2.4l-4.98 9.92v10.67c0 1-.77 1.77-1.77 1.77Zm14.38 0a6.19 6.19 0 0 1-6.2-6.2V734a6.19 6.19 0 1 1 12.4 0v12.55c0 3.43-2.76 6.2-6.2 6.2Zm0-21.4a2.65 2.65 0 0 0-2.65 2.65v12.55a2.65 2.65 0 0 0 2.66 2.66 2.65 2.65 0 0 0 2.65-2.66V734a2.65 2.65 0 0 0-2.66-2.65Zm12.85 15.2a2.65 2.65 0 0 0 2.65 2.66 2.67 2.67 0 0 0 2.66-2.66v-16.97c0-1 .77-1.78 1.77-1.78s1.77.78 1.77 1.78v16.97a6.19 6.19 0 1 1-12.4 0v-16.97c0-1 .78-1.78 1.78-1.78s1.77.78 1.77 1.78v16.97Zm12.76-14.83c.1-.04.14-.11.14-.23v-.14a1.74 1.74 0 0 1-1.18-1.63c0-.92.7-1.66 1.7-1.66h1.18c.92 0 1.66.74 1.66 1.66v1.77a3.6 3.6 0 0 1-2.21 3.33c-.85.4-1.85-.04-2.18-.89-.4-.88.04-1.8.89-2.21Zm5.47-1.66c-.26-1 .26-1.92 1.26-2.18.92-.26 1.91.3 2.17 1.22l1.44 5.27c.85 3.06 1.88 6.83 2.77 9.97l2.73-9.97 1.44-5.27a1.78 1.78 0 0 1 2.18-1.22c1 .26 1.5 1.18 1.25 2.18l-5.9 21.4a1.78 1.78 0 0 1-3.43 0l-5.9-21.4Zm17.8-.34c0-1 .77-1.77 1.77-1.77h7.38c1 0 1.77.78 1.77 1.77 0 1-.78 1.77-1.77 1.77h-5.61v6.65h4.87c1 0 1.77.77 1.77 1.77s-.78 1.77-1.77 1.77h-4.87v7.38h5.6c1 0 1.78.77 1.78 1.77s-.78 1.77-1.77 1.77h-7.38c-1 0-1.77-.77-1.77-1.77v-21.1Zm33.07 6.5a6.1 6.1 0 0 1-3.31 5.5l3.2 8.63c.41.92-.1 1.95-1.03 2.29a1.8 1.8 0 0 1-2.29-1.04l-3.43-9.18h-1.99v8.56c0 1-.78 1.77-1.77 1.77-1 0-1.77-.78-1.77-1.77V729.7c0-1 .77-1.77 1.77-1.77H245a6.2 6.2 0 0 1 6.2 6.2v2.07Zm-8.85 2.65H245a2.65 2.65 0 0 0 2.65-2.65v-2.07a2.65 2.65 0 0 0-2.65-2.65h-2.66v7.37Zm11.8-9.15c0-1 .78-1.77 1.78-1.77h7.38c1 0 1.77.78 1.77 1.77 0 1-.78 1.77-1.77 1.77h-5.61v6.65h4.87c1 0 1.77.77 1.77 1.77s-.77 1.77-1.77 1.77h-4.87v7.38h5.6c1 0 1.78.77 1.78 1.77s-.78 1.77-1.77 1.77h-7.38c-1 0-1.77-.77-1.77-1.77v-21.1Zm17.73 22.8a6.14 6.14 0 0 1-4.58-5.97V734c0-2.8 1.88-5.27 4.57-5.97a6.1 6.1 0 0 1 6.98 2.88c.55.84.22 1.88-.63 2.43-.85.48-1.88.18-2.43-.66a2.61 2.61 0 0 0-3-1.22 2.65 2.65 0 0 0-1.95 2.54v12.55c0 1.22.81 2.25 1.96 2.58 1.18.3 2.4-.22 2.99-1.25.55-.85 1.58-1.15 2.43-.67.85.56 1.18 1.59.63 2.44a6.11 6.11 0 0 1-6.97 2.88Zm10.06-22.8c0-1 .77-1.77 1.77-1.77h7.38c1 0 1.77.78 1.77 1.77 0 1-.77 1.77-1.77 1.77h-5.6v6.65h4.86c1 0 1.77.77 1.77 1.77s-.77 1.77-1.77 1.77h-4.87v7.38h5.6c1 0 1.78.77 1.78 1.77s-.77 1.77-1.77 1.77h-7.38c-1 0-1.77-.77-1.77-1.77v-21.1Zm15.35 23.03c-1 0-1.77-.78-1.77-1.77v-21.4c0-1 .78-1.78 1.77-1.78 1 0 1.78.78 1.78 1.78v21.4c0 1-.78 1.77-1.78 1.77Zm4.37-22.7a1.7 1.7 0 0 1 1.25-2.17 1.8 1.8 0 0 1 2.18 1.22l1.44 5.27c.85 3.06 1.88 6.83 2.76 9.97l2.73-9.97 1.44-5.27a1.78 1.78 0 0 1 2.18-1.22c1 .26 1.51 1.18 1.25 2.18l-5.9 21.4a1.78 1.78 0 0 1-3.43 0l-5.9-21.4Zm17.79-.33c0-1 .77-1.77 1.77-1.77h7.38c1 0 1.77.78 1.77 1.77 0 1-.77 1.77-1.77 1.77h-5.6v6.65h4.86c1 0 1.77.77 1.77 1.77s-.77 1.77-1.77 1.77h-4.87v7.38h5.6c1 0 1.78.77 1.78 1.77s-.77 1.77-1.77 1.77h-7.38c-1 0-1.77-.77-1.77-1.77v-21.1Zm19.78-1.77a6.2 6.2 0 0 1 6.2 6.2v12.25a6.2 6.2 0 0 1-6.2 6.2h-4.43c-1 0-1.77-.77-1.77-1.77v-21.1c0-1 .78-1.78 1.77-1.78h4.43Zm2.66 6.2a2.65 2.65 0 0 0-2.66-2.65h-2.66v17.56h2.66a2.65 2.65 0 0 0 2.66-2.66v-12.25Z" fill="#fff"/><path d="M136.87 788.3c0 1.63-.88 3.03-2.25 3.73l2.17 5.85c.28.62-.07 1.32-.7 1.54a1.22 1.22 0 0 1-1.55-.7l-2.32-6.22h-1.35v5.8c0 .68-.53 1.2-1.2 1.2-.68 0-1.2-.52-1.2-1.2v-14.4c0-.67.52-1.2 1.2-1.2h3a4.2 4.2 0 0 1 4.2 4.2v1.4Zm-6 1.8h1.8c1 0 1.8-.8 1.8-1.8v-1.4c0-1-.8-1.8-1.8-1.8h-1.8v5Zm8-6.2c0-.67.52-1.2 1.2-1.2h5c.67 0 1.2.52 1.2 1.2 0 .68-.53 1.2-1.2 1.2h-3.8v4.5h3.3c.67 0 1.2.52 1.2 1.2 0 .68-.53 1.2-1.2 1.2h-3.3v5h3.8c.67 0 1.2.52 1.2 1.2 0 .67-.53 1.2-1.2 1.2h-5c-.68 0-1.2-.52-1.2-1.2v-14.3Zm15.9-1.2c.68 0 1.2.52 1.2 1.2 0 .68-.52 1.2-1.2 1.2h-2.05v13.2c0 .68-.52 1.2-1.2 1.2-.67 0-1.2-.52-1.2-1.2v-13.2h-2.05c-.67 0-1.2-.52-1.2-1.2 0-.67.53-1.2 1.2-1.2h6.5Zm5 12.6c0 1 .8 1.8 1.8 1.8.97 0 1.8-.8 1.8-1.8v-11.5c0-.67.52-1.2 1.2-1.2.67 0 1.2.52 1.2 1.2v11.5a4.2 4.2 0 0 1-8.4 0v-11.5c0-.67.52-1.2 1.2-1.2.67 0 1.2.52 1.2 1.2v11.5Zm16.8-7c0 1.63-.88 3.03-2.26 3.73l2.18 5.85c.27.62-.08 1.32-.7 1.54a1.22 1.22 0 0 1-1.55-.7l-2.33-6.22h-1.35v5.8c0 .68-.52 1.2-1.2 1.2-.67 0-1.2-.52-1.2-1.2v-14.4c0-.67.53-1.2 1.2-1.2h3a4.2 4.2 0 0 1 4.2 4.2v1.4Zm-6 1.8h1.8c1 0 1.8-.8 1.8-1.8v-1.4c0-1-.8-1.8-1.8-1.8h-1.8v5Zm16.47 9.38a1.18 1.18 0 0 1-1.35-.65c-.5-1.08-1.03-2.16-1.58-3.28-.92-1.9-2.12-4.32-3.15-6.5v9.25c0 .68-.52 1.2-1.2 1.2-.67 0-1.2-.52-1.2-1.2v-14.5c0-.57.35-1.05.93-1.17.57-.13 1.07.14 1.35.64.5 1.08 1.02 2.15 1.57 3.28.93 1.9 2.08 4.33 3.15 6.5v-9.25c0-.67.53-1.2 1.2-1.2.68 0 1.2.52 1.2 1.2v14.5c0 .58-.4 1.05-.92 1.18Zm15.05-16.78c.67 0 1.2.52 1.2 1.2 0 .68-.53 1.2-1.2 1.2h-2.06v13.2c0 .68-.52 1.2-1.2 1.2-.67 0-1.2-.52-1.2-1.2v-13.2h-2.04c-.68 0-1.2-.52-1.2-1.2 0-.67.52-1.2 1.2-1.2h6.5Zm6.45 16.8a4.2 4.2 0 0 1-4.2-4.2v-8.5a4.2 4.2 0 1 1 8.4 0v8.5a4.2 4.2 0 0 1-4.2 4.2Zm0-14.5c-1 0-1.8.8-1.8 1.8v8.5c0 1 .8 1.8 1.8 1.8s1.8-.8 1.8-1.8v-8.5c0-1-.8-1.8-1.8-1.8Zm18.2 5.1c.68 0 1.2.52 1.2 1.2v4a4.2 4.2 0 1 1-8.4 0v-8.5c0-1.9 1.26-3.57 3.13-4.05a4.19 4.19 0 0 1 4.73 1.95c.32.57.12 1.27-.45 1.65a1.2 1.2 0 0 1-1.63-.45 1.8 1.8 0 0 0-2.02-.82c-.8.2-1.35.92-1.35 1.72v8.5c0 1 .82 1.8 1.8 1.8 1 0 1.8-.8 1.8-1.8v-2.8h-1.3c-.68 0-1.2-.52-1.2-1.2 0-.67.52-1.2 1.2-1.2h2.5Zm12.66 7.88a1.2 1.2 0 1 1-2.3.64c-.07-.2-.12-.45-.2-.72-.12-.48-.32-1.13-.52-1.9h-4.25c-.23.77-.4 1.42-.53 1.9-.07.27-.12.52-.2.73-.17.62-.8 1-1.47.82-.63-.18-1-.8-.83-1.48l4-14.5c.13-.52.58-.87 1.15-.87.58 0 1.03.35 1.15.88l4 14.5Zm-3.7-4.38c-.47-1.73-.97-3.65-1.45-5.27-.47 1.62-.97 3.54-1.45 5.27h2.9Zm6.44 5.9c-.67 0-1.2-.52-1.2-1.2v-14.5c0-.57.35-1.05.93-1.17.57-.13 1.12.14 1.35.67.32.73.67 1.45 1.02 2.18.58 1.27 1.33 2.77 1.9 4 .58-1.23 1.3-2.73 1.88-4 .32-.73.67-1.46 1.02-2.18.28-.52.78-.8 1.35-.67.58.12.95.6.95 1.17v14.5c0 .68-.52 1.2-1.2 1.2-.67 0-1.2-.52-1.2-1.2v-9.13l-1.17 2.48c-.18.4-.38.77-.55 1.15-.2.43-.6.7-1.08.7-.52 0-.87-.23-1.1-.7-.17-.38-.37-.75-.55-1.15-.32-.67-.75-1.57-1.15-2.48v9.13c0 .68-.52 1.2-1.2 1.2Zm11.79-15.6c0-.67.53-1.2 1.2-1.2h5c.68 0 1.2.52 1.2 1.2 0 .68-.52 1.2-1.2 1.2h-3.8v4.5h3.3c.68 0 1.2.52 1.2 1.2 0 .68-.52 1.2-1.2 1.2h-3.3v5h3.8c.68 0 1.2.52 1.2 1.2 0 .67-.52 1.2-1.2 1.2h-5c-.67 0-1.2-.52-1.2-1.2v-14.3Z" fill="#000"/><path d="m134.62 792.02-.07-.13-.12.06.04.13.15-.06Zm2.17 5.86-.14.05.14-.05Zm-.7 1.54.05.15-.05-.15Zm-1.55-.7-.14.06.14-.05Zm-2.32-6.22.14-.05-.04-.1h-.1v.15Zm-1.35 0v-.15h-.15v.15h.15Zm0-2.4h-.15v.15h.15v-.15Zm0-5v-.15h-.15v.15h.15Zm5.85 3.2a4 4 0 0 1-2.17 3.6l.13.26a4.27 4.27 0 0 0 2.34-3.86h-.3Zm-2.25 3.78 2.18 5.85.28-.1-2.17-5.86-.28.1Zm2.18 5.85a1 1 0 0 1-.61 1.35l.1.29c.7-.25 1.1-1.04.79-1.75l-.28.11Zm-.61 1.35c-.54.2-1.12-.06-1.36-.62l-.28.13c.3.69 1.04 1.03 1.74.78l-.1-.29Zm-1.36-.6-2.32-6.23-.29.1 2.33 6.23.28-.1Zm-2.46-6.33h-1.35v.3h1.35v-.3Zm-1.5.15v5.8h.3v-5.8h-.3Zm0 5.8c0 .6-.46 1.05-1.05 1.05v.3c.75 0 1.35-.6 1.35-1.35h-.3Zm-1.05 1.05c-.6 0-1.05-.46-1.05-1.05h-.3c0 .76.59 1.35 1.35 1.35v-.3Zm-1.05-1.05v-14.4h-.3v14.4h.3Zm0-14.4c0-.6.45-1.05 1.05-1.05v-.3c-.76 0-1.35.6-1.35 1.35h.3Zm1.05-1.05h3v-.3h-3v.3Zm3 0c2.24 0 4.05 1.8 4.05 4.05h.3c0-2.4-1.95-4.35-4.35-4.35v.3Zm4.05 4.05v1.4h.3v-1.4h-.3Zm-5.85 3.35h1.8v-.3h-1.8v.3Zm1.8 0c1.08 0 1.95-.87 1.95-1.95h-.3c0 .92-.74 1.65-1.65 1.65v.3Zm1.95-1.95v-1.4h-.3v1.4h.3Zm0-1.4c0-1.08-.87-1.95-1.95-1.95v.3c.91 0 1.65.73 1.65 1.65h.3Zm-1.95-1.95h-1.8v.3h1.8v-.3Zm-1.95.15v5h.3v-5h-.3Zm10.55 0v-.15h-.15v.15h.15Zm0 4.5h-.15v.15h.15v-.15Zm0 2.4v-.15h-.15v.15h.15Zm0 5h-.15v.15h.15V797Zm-2.25-13.1c0-.6.45-1.05 1.05-1.05v-.3c-.76 0-1.35.6-1.35 1.35h.3Zm1.05-1.05h5v-.3h-5v.3Zm5 0c.59 0 1.05.46 1.05 1.05h.3c0-.76-.6-1.35-1.35-1.35v.3Zm1.05 1.05c0 .6-.46 1.05-1.05 1.05v.3c.75 0 1.35-.6 1.35-1.35h-.3Zm-1.05 1.05h-3.8v.3h3.8v-.3Zm-3.95.15v4.5h.3v-4.5h-.3Zm.15 4.65h3.3v-.3h-3.3v.3Zm3.3 0c.59 0 1.05.46 1.05 1.05h.3c0-.76-.6-1.35-1.35-1.35v.3Zm1.05 1.05c0 .6-.46 1.05-1.05 1.05v.3c.75 0 1.35-.6 1.35-1.35h-.3Zm-1.05 1.05h-3.3v.3h3.3v-.3Zm-3.45.15v5h.3v-5h-.3Zm.15 5.15h3.8v-.3h-3.8v.3Zm3.8 0c.59 0 1.05.46 1.05 1.05h.3c0-.76-.6-1.35-1.35-1.35v.3Zm1.05 1.05c0 .6-.46 1.05-1.05 1.05v.3c.75 0 1.35-.6 1.35-1.35h-.3Zm-1.05 1.05h-5v.3h5v-.3Zm-5 0c-.6 0-1.05-.46-1.05-1.05h-.3c0 .76.59 1.35 1.35 1.35v-.3Zm-1.05-1.05v-14.3h-.3v14.3h.3Zm13.7-13.1v-.15h-.15v.15h.15Zm-2.4 0h.15v-.15h-.15v.15Zm4.45-2.25c.6 0 1.05.46 1.05 1.05h.3c0-.76-.6-1.35-1.35-1.35v.3Zm1.05 1.05c0 .6-.46 1.05-1.05 1.05v.3c.76 0 1.35-.6 1.35-1.35h-.3Zm-1.05 1.05h-2.05v.3h2.05v-.3Zm-2.2.15v13.2h.3v-13.2h-.3Zm0 13.2c0 .6-.46 1.05-1.05 1.05v.3c.76 0 1.35-.6 1.35-1.35h-.3Zm-1.05 1.05c-.6 0-1.05-.46-1.05-1.05h-.3c0 .76.6 1.35 1.35 1.35v-.3Zm-1.05-1.05v-13.2h-.3v13.2h.3Zm-.15-13.35h-2.05v.3h2.05v-.3Zm-2.05 0c-.6 0-1.05-.46-1.05-1.05h-.3c0 .76.6 1.35 1.35 1.35v-.3Zm-1.05-1.05c0-.6.46-1.05 1.05-1.05v-.3c-.76 0-1.35.6-1.35 1.35h.3Zm1.05-1.05h6.5v-.3h-6.5v.3Zm11.35 12.45c0 1.08.87 1.95 1.95 1.95v-.3c-.92 0-1.65-.73-1.65-1.65h-.3Zm1.95 1.95c1.05 0 1.95-.87 1.95-1.95h-.3c0 .92-.76 1.65-1.65 1.65v.3Zm1.95-1.95v-11.5h-.3v11.5h.3Zm0-11.5c0-.6.45-1.05 1.05-1.05v-.3c-.76 0-1.35.6-1.35 1.35h.3Zm1.05-1.05c.59 0 1.05.46 1.05 1.05h.3c0-.76-.6-1.35-1.35-1.35v.3Zm1.05 1.05v11.5h.3v-11.5h-.3Zm0 11.5a4.06 4.06 0 0 1-4.05 4.05v.3a4.36 4.36 0 0 0 4.35-4.35h-.3Zm-4.05 4.05a4.04 4.04 0 0 1-4.05-4.05h-.3c0 2.4 1.94 4.35 4.35 4.35v-.3Zm-4.05-4.05v-11.5h-.3v11.5h.3Zm0-11.5c0-.6.45-1.05 1.05-1.05v-.3c-.76 0-1.35.6-1.35 1.35h.3Zm1.05-1.05c.59 0 1.05.46 1.05 1.05h.3c0-.76-.6-1.35-1.35-1.35v.3Zm1.05 1.05v11.5h.3v-11.5h-.3Zm14.7 8.23-.07-.14-.12.06.04.13.14-.06Zm2.17 5.85-.14.05.14-.05Zm-.7 1.54.05.15-.05-.15Zm-1.55-.7-.14.06.14-.05Zm-2.33-6.22.14-.05-.03-.1h-.1v.15Zm-1.35 0v-.15h-.15v.15h.15Zm0-2.4h-.15v.15h.15v-.15Zm0-5v-.15h-.15v.15h.15Zm5.85 3.2a4 4 0 0 1-2.16 3.6l.13.26a4.27 4.27 0 0 0 2.33-3.86h-.3Zm-2.24 3.78 2.18 5.85.28-.1-2.18-5.86-.28.1Zm2.18 5.85a1 1 0 0 1-.61 1.35l.1.29c.7-.25 1.1-1.04.79-1.75l-.28.11Zm-.61 1.35c-.55.2-1.12-.06-1.36-.62l-.28.13c.3.69 1.03 1.03 1.74.78l-.1-.29Zm-1.36-.6-2.33-6.23-.28.1 2.33 6.23.28-.1Zm-2.47-6.33h-1.35v.3h1.35v-.3Zm-1.5.15v5.8h.3v-5.8h-.3Zm0 5.8c0 .6-.45 1.05-1.05 1.05v.3c.76 0 1.35-.6 1.35-1.35h-.3Zm-1.05 1.05c-.59 0-1.05-.46-1.05-1.05h-.3c0 .76.6 1.35 1.35 1.35v-.3Zm-1.05-1.05v-14.4h-.3v14.4h.3Zm0-14.4c0-.6.46-1.05 1.05-1.05v-.3c-.76 0-1.35.6-1.35 1.35h.3Zm1.05-1.05h3v-.3h-3v.3Zm3 0c2.24 0 4.05 1.8 4.05 4.05h.3c0-2.4-1.94-4.35-4.35-4.35v.3Zm4.05 4.05v1.4h.3v-1.4h-.3Zm-5.85 3.35h1.8v-.3h-1.8v.3Zm1.8 0c1.09 0 1.95-.87 1.95-1.95h-.3c0 .92-.73 1.65-1.65 1.65v.3Zm1.95-1.95v-1.4h-.3v1.4h.3Zm0-1.4c0-1.08-.86-1.95-1.95-1.95v.3c.92 0 1.65.73 1.65 1.65h.3Zm-1.95-1.95h-1.8v.3h1.8v-.3Zm-1.95.15v5h.3v-5h-.3Zm16.63 14.38.03.14-.03-.14Zm-1.35-.65.13-.07-.13.07Zm-1.58-3.28-.13.07.13-.07Zm-3.15-6.5.14-.06-.29.06h.15Zm-.12-5.77.13-.07-.13.06Zm1.57 3.27.14-.07-.14.07Zm3.15 6.5-.13.07.28-.07h-.15Zm1.45 6.28c-.51.1-.99-.13-1.19-.57l-.27.13c.26.56.88.87 1.52.73l-.06-.3Zm-1.19-.57a188.9 188.9 0 0 0-1.57-3.28l-.27.14c.55 1.12 1.07 2.2 1.57 3.27l.27-.13Zm-1.57-3.28c-.93-1.9-2.13-4.32-3.15-6.5l-.27.13c1.02 2.18 2.22 4.6 3.15 6.5l.27-.13Zm-3.44-6.43v9.25h.3v-9.25h-.3Zm0 9.25c0 .6-.45 1.05-1.05 1.05v.3c.76 0 1.35-.6 1.35-1.35h-.3Zm-1.05 1.05c-.59 0-1.05-.46-1.05-1.05h-.3c0 .76.6 1.35 1.35 1.35v-.3Zm-1.05-1.05v-14.5h-.3v14.5h.3Zm0-14.5a1 1 0 0 1 .81-1.03l-.06-.3a1.3 1.3 0 0 0-1.05 1.33h.3Zm.81-1.03c.5-.1.94.13 1.19.58l.26-.15c-.3-.55-.87-.86-1.51-.72l.06.3Zm1.18.57c.5 1.07 1.03 2.15 1.58 3.28l.27-.14c-.55-1.12-1.08-2.2-1.58-3.27l-.27.13Zm1.58 3.28c.92 1.9 2.07 4.32 3.15 6.5l.27-.14c-1.08-2.17-2.22-4.6-3.15-6.5l-.27.14Zm3.43 6.43v-9.25h-.3v9.25h.3Zm0-9.25c0-.6.46-1.05 1.05-1.05v-.3c-.75 0-1.35.6-1.35 1.35h.3Zm1.05-1.05c.6 0 1.05.46 1.05 1.05h.3c0-.76-.59-1.35-1.35-1.35v.3Zm1.05 1.05v14.5h.3v-14.5h-.3Zm0 14.5c0 .5-.35.92-.8 1.03l.06.3c.6-.15 1.04-.68 1.04-1.33h-.3Zm12.22-13.2v-.15h-.15v.15h.16Zm-2.4 0h.16v-.15h-.16v.15Zm4.46-2.25c.59 0 1.04.46 1.04 1.05h.3c0-.76-.59-1.35-1.34-1.35v.3Zm1.04 1.05c0 .6-.45 1.05-1.04 1.05v.3c.75 0 1.34-.6 1.34-1.35h-.3Zm-1.04 1.05h-2.06v.3h2.06v-.3Zm-2.2.15v13.2h.3v-13.2h-.3Zm0 13.2c0 .6-.46 1.05-1.05 1.05v.3c.75 0 1.34-.6 1.34-1.35h-.3Zm-1.05 1.05c-.6 0-1.06-.46-1.06-1.05h-.3c0 .76.6 1.35 1.36 1.35v-.3Zm-1.06-1.05v-13.2h-.3v13.2h.3Zm-.15-13.35h-2.04v.3h2.04v-.3Zm-2.04 0c-.6 0-1.06-.46-1.06-1.05h-.3c0 .76.6 1.35 1.36 1.35v-.3Zm-1.06-1.05c0-.6.46-1.05 1.06-1.05v-.3c-.76 0-1.35.6-1.35 1.35h.3Zm1.06-1.05h6.5v-.3h-6.5v.3Zm12.95 16.5a4.04 4.04 0 0 1-4.05-4.05h-.3c0 2.4 1.94 4.35 4.35 4.35v-.3Zm-4.05-4.05v-8.5h-.3v8.5h.3Zm0-8.5c0-2.24 1.8-4.05 4.05-4.05v-.3a4.34 4.34 0 0 0-4.35 4.35h.3Zm4.05-4.05c2.24 0 4.05 1.8 4.05 4.05h.3c0-2.4-1.94-4.35-4.35-4.35v.3Zm4.05 4.05v8.5h.3v-8.5h-.3Zm0 8.5a4.05 4.05 0 0 1-4.05 4.05v.3c2.4 0 4.35-1.94 4.35-4.35h-.3Zm-4.05-10.45c-1.08 0-1.95.87-1.95 1.95h.3c0-.92.73-1.65 1.65-1.65v-.3Zm-1.95 1.95v8.5h.3v-8.5h-.3Zm0 8.5c0 1.08.87 1.95 1.95 1.95v-.3c-.92 0-1.65-.73-1.65-1.65h-.3Zm1.95 1.95c1.08 0 1.95-.87 1.95-1.95h-.3c0 .92-.73 1.65-1.65 1.65v.3Zm1.95-1.95v-8.5h-.3v8.5h.3Zm0-8.5c0-1.08-.87-1.95-1.95-1.95v.3c.92 0 1.65.73 1.65 1.65h.3Zm12.18-4.05.04.14-.04-.14Zm4.73 1.95.13-.07-.13.07Zm-.45 1.65.07.13h.01l-.08-.13Zm-1.63-.45.13-.07-.13.07Zm-2.02-.82.03.14h.01l-.04-.14Zm2.25 7.42h.15v-.15h-.15v.15Zm1.2-2.25c.59 0 1.05.46 1.05 1.05h.3c0-.76-.6-1.35-1.35-1.35v.3Zm1.05 1.05v4h.3v-4h-.3Zm0 4a4.05 4.05 0 0 1-4.05 4.05v.3c2.4 0 4.35-1.94 4.35-4.35h-.3Zm-4.05 4.05a4.06 4.06 0 0 1-4.05-4.05h-.3c0 2.4 1.97 4.35 4.35 4.35v-.3Zm-4.05-4.05v-8.5h-.3v8.5h.3Zm0-8.5a4 4 0 0 1 3.01-3.9l-.07-.3a4.3 4.3 0 0 0-3.24 4.2h.3Zm3.01-3.9a4.04 4.04 0 0 1 4.56 1.87l.26-.14a4.34 4.34 0 0 0-4.9-2.02l.08.28Zm4.56 1.87c.28.5.11 1.12-.4 1.45l.16.26c.63-.42.87-1.2.5-1.85l-.26.14Zm-.4 1.45c-.5.28-1.13.1-1.42-.4l-.26.15c.37.65 1.19.88 1.83.51l-.15-.26Zm-1.42-.4a1.95 1.95 0 0 0-2.2-.89l.09.29c.7-.2 1.46.11 1.85.76l.26-.16Zm-2.19-.9a1.95 1.95 0 0 0-1.46 1.88h.3c0-.73.5-1.4 1.23-1.58l-.07-.3Zm-1.46 1.88v8.5h.3v-8.5h-.3Zm0 8.5c0 1.08.9 1.95 1.95 1.95v-.3c-.9 0-1.65-.73-1.65-1.65h-.3Zm1.95 1.95c1.08 0 1.95-.87 1.95-1.95h-.3c0 .92-.74 1.65-1.65 1.65v.3Zm1.95-1.95v-2.8h-.3v2.8h.3Zm-.15-2.95h-1.3v.3h1.3v-.3Zm-1.3 0c-.6 0-1.05-.46-1.05-1.05h-.3c0 .76.59 1.35 1.35 1.35v-.3Zm-1.05-1.05c0-.6.46-1.05 1.05-1.05v-.3c-.76 0-1.35.6-1.35 1.35h.3Zm1.05-1.05h2.5v-.3h-2.5v.3Zm15.15 7.73.15-.04-.15.03Zm-.82 1.47.03.14-.03-.14Zm-1.48-.83.15-.04-.15.04Zm-.2-.72-.14.04.14-.04Zm-.52-1.9.14-.04-.03-.11h-.11v.15Zm-4.25 0v-.15H232l-.03.1.15.05Zm-.53 1.9.15.04-.15-.04Zm-.2.73-.14-.06v.01l.14.04Zm-1.47.82-.05.14.05-.14Zm-.83-1.48-.14-.04.14.05Zm4-14.5.15.04-.15-.03Zm2.3 0-.15.04.15-.03Zm.3 10.13v.15h.2l-.06-.19-.14.04Zm-1.45-5.27.15-.05-.15-.49-.14.5.14.04Zm-1.45 5.27-.14-.04-.06.19h.2v-.15Zm6.45 4.41c.16.6-.17 1.14-.72 1.3l.09.28c.7-.2 1.12-.9.93-1.65l-.3.07Zm-.71 1.3c-.6.15-1.14-.18-1.3-.72l-.28.07c.2.71.9 1.13 1.65.94l-.07-.3Zm-1.3-.74c-.07-.19-.12-.42-.2-.7l-.28.07c.07.26.12.53.2.74l.28-.1Zm-.2-.7-.23-.85a44.6 44.6 0 0 1-.29-1.06l-.29.08.3 1.06.23.84.29-.08Zm-.66-2.02h-4.25v.3h4.25v-.3Zm-4.4.1-.52 1.91.29.08c.12-.48.3-1.13.52-1.9l-.29-.08Zm-.52 1.91c-.08.3-.13.52-.2.71l.28.1c.08-.2.13-.47.2-.73l-.28-.08Zm-.2.73c-.16.54-.7.87-1.3.71l-.07.3c.75.2 1.46-.23 1.66-.94l-.3-.07Zm-1.3.72c-.54-.16-.87-.7-.71-1.3l-.3-.07c-.19.75.23 1.46.94 1.65l.08-.28Zm-.72-1.3 4-14.5-.28-.08-4 14.5.28.09Zm4-14.5a1 1 0 0 1 1.01-.76v-.3c-.64 0-1.15.4-1.3.99l.3.07Zm1.01-.76c.51 0 .9.3 1 .76l.3-.07a1.3 1.3 0 0 0-1.3-.99v.3Zm1 .76 4 14.5.3-.08-4-14.5-.3.09Zm.6 10.05c-.48-1.72-.98-3.65-1.45-5.28l-.3.09c.48 1.62.98 3.54 1.46 5.27l.28-.08Zm-1.74-5.28c-.48 1.63-.98 3.56-1.45 5.28l.28.08c.48-1.73.98-3.65 1.46-5.27l-.3-.09Zm-1.3 5.47h2.9v-.3h-2.9v.3Zm10.4-10.45-.13.06.14-.06Zm1.03 2.18.14-.07-.14.07Zm1.9 4-.13.06.13.29.14-.3-.14-.05Zm1.88-4 .13.06-.13-.06Zm1.02-2.18-.13-.07.13.07Zm-.1 5.88h.15l-.28-.07.13.06Zm-1.17 2.47-.14-.06.14.06Zm-.55 1.15.13.06-.13-.06Zm-2.18 0-.13.06.13-.06Zm-.55-1.15.14-.06-.14.06Zm-1.15-2.48.14-.06-.29.06h.15Zm-1.2 10.18c-.6 0-1.05-.46-1.05-1.05h-.3c0 .76.6 1.35 1.35 1.35v-.3Zm-1.05-1.05v-14.5h-.3v14.5h.3Zm0-14.5a1 1 0 0 1 .8-1.03l-.05-.3a1.3 1.3 0 0 0-1.05 1.33h.3Zm.8-1.03c.52-.1 1 .13 1.19.59l.27-.12a1.3 1.3 0 0 0-1.51-.76l.06.3Zm1.19.6c.33.72.68 1.45 1.03 2.17l.27-.13c-.35-.73-.7-1.45-1.03-2.17l-.27.12Zm1.02 2.17c.58 1.27 1.33 2.78 1.9 4l.28-.13c-.58-1.23-1.33-2.72-1.9-4l-.28.13Zm2.18 4c.57-1.22 1.3-2.73 1.87-4l-.27-.13c-.57 1.28-1.3 2.77-1.87 4l.27.13Zm1.87-4c.33-.73.68-1.45 1.03-2.17l-.27-.13c-.35.72-.7 1.45-1.03 2.17l.27.13Zm1.02-2.17c.25-.47.69-.7 1.19-.6l.06-.3c-.65-.13-1.2.18-1.51.76l.26.14Zm1.19-.6c.5.11.83.52.83 1.03h.3c0-.64-.42-1.18-1.07-1.32l-.06.3Zm.83 1.03v14.5h.3v-14.5h-.3Zm0 14.5c0 .6-.46 1.05-1.05 1.05v.3c.76 0 1.35-.6 1.35-1.35h-.3Zm-1.05 1.05c-.6 0-1.05-.46-1.05-1.05h-.3c0 .76.6 1.35 1.35 1.35v-.3Zm-1.05-1.05v-9.13h-.3v9.13h.3Zm-.28-9.19-1.18 2.48.27.13 1.18-2.48-.27-.13Zm-1.18 2.48c-.18.4-.37.76-.55 1.15l.27.12c.17-.36.38-.75.55-1.15l-.27-.12Zm-.55 1.15c-.18.37-.53.61-.94.61v.3c.54 0 .99-.31 1.21-.79l-.27-.12Zm-.94.61c-.24 0-.43-.05-.58-.15a1.1 1.1 0 0 1-.38-.46l-.27.12c.12.26.28.46.49.6.2.13.46.19.74.19v-.3Zm-.96-.61c-.18-.4-.38-.75-.55-1.15l-.28.12c.18.4.39.8.56 1.15l.27-.12Zm-.55-1.15c-.33-.68-.75-1.58-1.15-2.48l-.27.13c.4.9.82 1.8 1.15 2.48l.27-.13Zm-1.44-2.42v9.13h.3v-9.13h-.3Zm0 9.13c0 .6-.46 1.05-1.05 1.05v.3c.76 0 1.35-.6 1.35-1.35h-.3Zm13.14-13.2v-.15h-.15v.15h.15Zm0 4.5h-.15v.15h.15v-.15Zm0 2.4v-.15h-.15v.15h.15Zm0 5h-.15v.15h.15V797Zm-2.25-13.1c0-.6.46-1.05 1.05-1.05v-.3c-.76 0-1.35.6-1.35 1.35h.3Zm1.05-1.05h5v-.3h-5v.3Zm5 0c.6 0 1.05.46 1.05 1.05h.3c0-.76-.6-1.35-1.35-1.35v.3Zm1.05 1.05c0 .6-.46 1.05-1.05 1.05v.3c.76 0 1.35-.6 1.35-1.35h-.3Zm-1.05 1.05h-3.8v.3h3.8v-.3Zm-3.95.15v4.5h.3v-4.5h-.3Zm.15 4.65h3.3v-.3h-3.3v.3Zm3.3 0c.6 0 1.05.46 1.05 1.05h.3c0-.76-.6-1.35-1.35-1.35v.3Zm1.05 1.05c0 .6-.46 1.05-1.05 1.05v.3c.76 0 1.35-.6 1.35-1.35h-.3Zm-1.05 1.05h-3.3v.3h3.3v-.3Zm-3.45.15v5h.3v-5h-.3Zm.15 5.15h3.8v-.3h-3.8v.3Zm3.8 0c.6 0 1.05.46 1.05 1.05h.3c0-.76-.6-1.35-1.35-1.35v.3Zm1.05 1.05c0 .6-.46 1.05-1.05 1.05v.3c.76 0 1.35-.6 1.35-1.35h-.3Zm-1.05 1.05h-5v.3h5v-.3Zm-5 0c-.6 0-1.05-.46-1.05-1.05h-.3c0 .76.6 1.35 1.35 1.35v-.3Zm-1.05-1.05v-14.3h-.3v14.3h.3Z" fill="#000"/><path d="M122 435a19 19 0 0 0 0-38H67a19 19 0 0 0 0 38h55Zm201 107a19 19 0 0 0 0-38h-55a19 19 0 0 0 0 38h55Zm-29-232a19 19 0 0 0 19 19h10a19 19 0 0 0 0-38h-10a19 19 0 0 0-19 19Zm0 0a19 19 0 0 0-19-19h-7a19 19 0 0 0 0 38h7a19 19 0 0 0 19-19ZM189 63a19.49 19.49 0 0 0-36.24 10v8.5a19.5 19.5 0 0 0 19.5 19.5 19.5 19.5 0 0 0-19.5 19.5v5.5A19.5 19.5 0 0 0 189 136m47-9.5L217 146V53.5" stroke="#fff" style="stroke:#fff;stroke-opacity:1" stroke-width="15" stroke-linecap="round" stroke-linejoin="round"/></g><defs><clipPath id="a"><path fill="#fff" d="M0 0h390v844H0z"/></clipPath><clipPath id="b"><path fill="#fff" transform="rotate(-90 438.54 174.54)" d="M0 0h28.15v64H0z"/></clipPath><clipPath id="c"><path fill="#fff" transform="rotate(-90 362.58 98.58)" d="M0 0h28.15v64H0z"/></clipPath><clipPath id="d"><path fill="#fff" transform="rotate(180 164 230.58)" d="M0 0h64v28.15H0z"/></clipPath><clipPath id="e"><path fill="#fff" transform="rotate(-90 332.04 68.04)" d="M0 0h28.15v64H0z"/></clipPath><clipPath id="f"><path fill="#fff" transform="rotate(-90 256.08 -7.92)" d="M0 0h28.15v64H0z"/></clipPath><clipPath id="g"><path fill="#fff" transform="rotate(180 164 124.08)" d="M0 0h64v28.15H0z"/></clipPath><clipPath id="h"><path fill="#fff" transform="rotate(90 -62.5 188.5)" d="M0 0h64v64H0z"/></clipPath><clipPath id="i"><path fill="#fff" transform="rotate(90 -195.5 321.5)" d="M0 0h64v64H0z"/></clipPath><clipPath id="j"><path fill="#fff" transform="translate(62 517)" d="M0 0h64v64H0z"/></clipPath><clipPath id="k"><path fill="#fff" transform="rotate(-180 174.84 65.97)" d="M0 0h60v67.11H0z"/></clipPath><clipPath id="l"><path fill="#fff" transform="rotate(-180 50.16 65.97)" d="M0 0h60v67.11H0z"/></clipPath><clipPath id="m"><path fill="#fff" transform="rotate(90 17.74 82.57)" d="M0 0h67.11v60H0z"/></clipPath></defs></svg>