<svg width="512" height="512" fill="none" xmlns="http://www.w3.org/2000/svg"><rect width="512" height="512" rx="128" fill="#FF005F" style="fill:#ff005f;fill:color(display-p3 1 0 .3725)"/><path fill-rule="evenodd" clip-rule="evenodd" d="M389.28 143.52 288.72 86.6a66.54 66.54 0 0 0-65.44 0l-100.56 56.92C102.54 154.94 90 176.22 90 199.08v113.84c0 22.85 12.54 44.14 32.72 55.56l100.56 56.92a66.56 66.56 0 0 0 65.44 0l100.56-56.92c20.18-11.42 32.72-32.7 32.72-55.56V199.08c0-22.85-12.54-44.14-32.72-55.56Z" fill="#00FFEF" style="fill:#00ffef;fill:color(display-p3 0 1 .9377)"/><path fill-rule="evenodd" clip-rule="evenodd" d="M396.93 317.23a6.15 6.15 0 0 1-3.13 5.42 6.16 6.16 0 0 1-6.25 0l-1.3-.75-6.55-3.78-7.62-4.4a8.54 8.54 0 0 1-3.79-10.19l28.64-82.73v96.43ZM377.73 349l-82.16 47.47 21.97-25.39 34.75-40.15a9.59 9.59 0 0 1 12.02-2.03l6.87 3.97 6.55 3.79a7 7 0 0 1 3.56 6.17 7 7 0 0 1-3.56 6.18Zm-116.9 61.57a6.33 6.33 0 0 1-4.83 2.2 6.33 6.33 0 0 1-4.82-2.2l-48.8-56.36-18.2-21.05a6.22 6.22 0 0 1-.99-6.85 6.21 6.21 0 0 1 5.82-3.74H323a6.2 6.2 0 0 1 5.82 3.74 6.22 6.22 0 0 1-.99 6.85l-18.21 21.05-48.79 56.36Zm-126.56-61.56a7 7 0 0 1-3.56-6.18 7 7 0 0 1 3.56-6.17l6.55-3.79 6.87-3.97a9.58 9.58 0 0 1 12.02 2.03l34.75 40.15 21.97 25.39L134.27 349Zm-8.52-27.11-1.3.75a6.16 6.16 0 0 1-6.26 0 6.15 6.15 0 0 1-3.13-5.42V220.8l28.65 82.73a8.54 8.54 0 0 1-3.8 10.19l-7.6 4.4-6.56 3.78Zm-4.2-143.06a8.08 8.08 0 0 1 5.56-3.95l101.95-19.63a4.62 4.62 0 0 1 4.78 1.91c.54.75 1.63 2.75.25 5.15l-.08.13-70.41 122.02v.01l-.07.13a4.64 4.64 0 0 1-4.58 2.35 4.63 4.63 0 0 1-4.05-3.18l-33.99-98.16a8.1 8.1 0 0 1 .65-6.78Zm116.73-74.92a6 6 0 0 1 6.13 0 6.03 6.03 0 0 1 3.08 5.31v18.35c0 3.92-2.8 7.31-6.65 8.05l-86.2 16.6 83.64-48.31ZM256 166.78c1.45 0 5.06.4 7.24 4.18L333.65 293a8.21 8.21 0 0 1 0 8.35 8.2 8.2 0 0 1-7.24 4.18H185.59a8.21 8.21 0 0 1-7.24-4.18 8.21 8.21 0 0 1 0-8.35l70.41-122.03a8.2 8.2 0 0 1 7.24-4.18Zm8.51-57.56c0-3.2 2.15-4.78 3.07-5.31a5.99 5.99 0 0 1 6.14 0l83.65 48.31-86.2-16.6a8.21 8.21 0 0 1-6.66-8.05v-18.35Zm125.93 69.6c1.2 2.1 1.44 4.5.65 6.8l-33.99 98.15a4.63 4.63 0 0 1-4.05 3.19c-.92.07-3.2.03-4.58-2.37l-.07-.12-70.41-122.03-.08-.13a4.63 4.63 0 0 1 .24-5.15 4.62 4.62 0 0 1 4.78-1.91l101.96 19.63a8.08 8.08 0 0 1 5.55 3.95Zm6.07-43.34L290.49 74.25A69.05 69.05 0 0 0 256 65c-12.1 0-24.02 3.2-34.5 9.25l-106 61.24A69.2 69.2 0 0 0 81 195.26v122.48a69.21 69.21 0 0 0 34.5 59.77l106 61.24a69.05 69.05 0 0 0 68.99 0l106.02-61.24A69.22 69.22 0 0 0 431 317.74V195.26a69.21 69.21 0 0 0-34.5-59.77Z" fill="#000"/></svg>