<svg xmlns="http://www.w3.org/2000/svg" viewBox="0 0 840 1024"><path fill="#fff" d="M574.7 60.62c.67-.37 6-2 5.7-1.32-4.82 10.95-7.97 19.5-9.2 23.64-34 108-31.52 181.4 62.48 245.4 81.84 55.73 193.15 128.43 206 238-4.73 94.02-104.7 147.05-176.62 188.98-100.55 55.24-210.72 131.75-241.38 251.03-42.39-127.17-163.1-205.03-273.35-265.23C81.37 701-12.07 643.86 1.68 554.35c36.07-126.04 123.77-159.46 216-244 72-66 80.75-138.14 44.87-225.05-6.14-14.87-13.44-25.54-9.63-24.96 5.69.88 19.66 8.83 31.58 22.45 44.13 50.42 112.6 192.14-2.82 307.56-53.91 53.91-146.65 140.58-124.78 197 21.87 56.43 183.75 97.4 261.76 166.62 77.33-79.81 265.37-122.76 269.2-186.23 3.84-63.47-104.47-133.49-158.18-195.4-62.46-74.56-39.87-181.68 3.45-259.97 4.19-7.57 15.64-28.43 27.14-40.46 5-5.23 9.62-8.67 14.44-11.3zm-153.85 49.84s-1.71 55.52-24.9 130.88C380 293.14 372.5 314.05 362 336.6c-17.84 38.33-30.4 54.98-46.1 87.95-10.23 21.04-20.64 42.41-25.7 65.73-4.27 28.64-1.2 58.89 11.29 84.8 15.29 34.44 44.73 60.75 78.65 71.29 16.85 6.4 35.03 4.36 52.58 4.2 51.44-5.96 96.56-50.15 107.57-104.72 9.55-35.58-2.37-83.33-18.29-115.16-11.9-24.95-32.53-54.08-46-88-15.01-37.8-23.32-71.01-31.99-103.68-15.82-59.63-17.95-103.66-23.16-128.56z"/></svg>