<svg width="100" height="100" fill="none" xmlns="http://www.w3.org/2000/svg"><path d="M50 100A50 50 0 1 0 50 0a50 50 0 0 0 0 100Z" fill="#915EFF" style="fill:#915eff;fill:color(display-p3 .5703 .3681 1)"/><path fill-rule="evenodd" clip-rule="evenodd" d="M17 46.32c0-17.2 13.76-31.15 33-31.15 19.24 0 33 13.95 33 31.15 0 10.98-4.54 20.62-14.15 26.17-.34 6.92-3.33 12.33-6.97 12.33-2.5 0-4.7-2.58-5.94-6.46-1.24 3.88-3.43 6.46-5.94 6.46-2.51 0-4.7-2.58-5.94-6.46-1.24 3.88-3.44 6.46-5.95 6.46-3.63 0-6.62-5.41-6.97-12.33C21.54 66.94 17 57.3 17 46.32Zm28.24 16.8 2.27-3.64c.83-1.32 1.24-1.98 1.77-2.2.46-.2.98-.2 1.44 0 .53.22.94.88 1.77 2.2l2.27 3.63c.44.71.66 1.06.75 1.28.8 1.95-.8 4.03-2.88 3.77-.23-.02-.63-.14-1.43-.38l-.29-.09a3.67 3.67 0 0 0-1.82 0l-.3.09c-.79.24-1.19.36-1.42.38a2.75 2.75 0 0 1-2.88-3.77c.09-.22.3-.57.75-1.28Zm-.74-12.2a8.25 8.25 0 1 1-16.5 0 8.25 8.25 0 0 1 16.5 0Zm19.25 8.25a8.25 8.25 0 1 0 0-16.5 8.25 8.25 0 0 0 0 16.5Z" fill="#000"/></svg>