<svg width="78" height="55" viewBox="0 0 78 55" fill="none" xmlns="http://www.w3.org/2000/svg"><path d="M2.07 43v-.18l2.53-1.57V16.23h5.71v-.18l-8.24-5.06v-.2H14.7c3.12 0 5.83.67 8.13 2.02a13.26 13.26 0 0 1 5.3 5.66A18.4 18.4 0 0 1 30 26.9c0 5.12-1.36 9.08-4.07 11.9-2.7 2.8-6.43 4.2-11.2 4.2H2.06Zm9.43-2.99h3.21c2.6 0 4.54-1.08 5.8-3.23 1.25-2.17 1.88-5.47 1.88-9.88 0-4.59-.62-7.91-1.86-9.98-1.24-2.08-3.18-3.12-5.82-3.12H11.5v26.21ZM29.54 43v-.18l2.62-1.57 10.58-24.46h.18l10.36 24.46 2.63 1.57V43h-8.94l-2.9-7.41-3.08 1.97h-3.68l-.27.66a6 6 0 0 0-.45 2.15c0 .57.18 1.07.54 1.5.36.44.88.76 1.57.95V43h-9.16Zm8.94-7.95h5.36l-2.42-6.5h-.2l-2.74 6.5Zm13.99-16.71v-.18h9.1l5.1 10.71h.2l2.42-4.92a7.7 7.7 0 0 0 .97-3.2c0-1.46-.88-2.26-2.63-2.41v-.18h9.95v.18l-2.8 1.35-6.32 12.64v5.19c0 .72.08 1.37.25 1.95.16.59.37 1.06.63 1.42a4.68 4.68 0 0 0 1.95 1.57c.33.14.69.26 1.08.36V43H57.88v-.18l3.91-1.57v-8.22l-6.54-13.34-2.78-1.35Z" fill="#fff"/></svg>