<svg width="100" height="100" fill="none" xmlns="http://www.w3.org/2000/svg"><path fill-rule="evenodd" clip-rule="evenodd" d="M82.3 45.29c-1.22 1.7-2.4 3.32-2.4 4.71 0 1.38 1.18 3.01 2.4 4.71 1.6 2.2 3.27 4.54 2.59 6.63-.71 2.18-3.54 3.1-6.16 3.96-1.94.63-3.77 1.23-4.53 2.28-.78 1.07-.78 3.01-.79 5.07 0 2.75-.02 5.69-1.85 7.02-1.8 1.32-4.58.43-7.18-.4-1.98-.63-3.85-1.23-5.13-.82-1.2.4-2.32 1.92-3.5 3.56-1.63 2.23-3.4 4.67-5.75 4.67-2.34 0-4.11-2.44-5.74-4.67-1.19-1.64-2.3-3.17-3.5-3.56-1.28-.41-3.16.19-5.13.82-2.6.83-5.38 1.72-7.19.4-1.83-1.33-1.84-4.28-1.85-7.02 0-2.06-.01-4-.79-5.07-.76-1.05-2.59-1.64-4.53-2.28-2.62-.85-5.44-1.77-6.16-3.96-.68-2.1 1-4.42 2.59-6.63 1.22-1.7 2.4-3.32 2.4-4.71 0-1.38-1.18-3.01-2.4-4.71-1.59-2.2-3.27-4.54-2.59-6.63.71-2.18 3.54-3.1 6.16-3.96 1.94-.63 3.77-1.23 4.53-2.28.78-1.07.79-3.01.8-5.07 0-2.75 0-5.69 1.84-7.02 1.8-1.32 4.58-.43 7.19.4 1.97.63 3.84 1.23 5.13.82 1.2-.4 2.31-1.92 3.5-3.56 1.62-2.23 3.4-4.67 5.74-4.67 2.34 0 4.12 2.44 5.74 4.67 1.2 1.64 2.3 3.17 3.5 3.56 1.28.41 3.16-.19 5.13-.82 2.6-.83 5.38-1.72 7.2-.4 1.82 1.33 1.83 4.28 1.84 7.02 0 2.06.01 4 .79 5.07.77 1.06 2.6 1.65 4.54 2.28 2.62.85 5.44 1.77 6.15 3.96.68 2.1-1 4.42-2.59 6.63ZM50 74a24 24 0 1 0 0-48 24 24 0 0 0 0 48Z" fill="#fff"/><circle cx="50" cy="50" r="19" fill="#fff"/></svg>