<svg width="50" height="50" fill="none" xmlns="http://www.w3.org/2000/svg"><circle cx="25" cy="25" r="25" fill="#fff"/><path d="M5.34 48.58c-1.75.46-2.63.7-3.24.46A2 2 0 0 1 .95 47.9c-.23-.61 0-1.49.47-3.24L4 35l11 11z" fill="#fff"/><path d="M25 8.98c8.85 0 15.18 6.41 15.18 14.33 0 5.05-2.09 9.48-6.5 12.03-.17 3.19-1.54 5.68-3.22 5.68-1.15 0-2.16-1.2-2.73-2.97-.57 1.78-1.58 2.97-2.73 2.97s-2.17-1.2-2.73-2.97c-.57 1.78-1.58 2.97-2.74 2.97-1.67 0-3.05-2.5-3.2-5.68-4.42-2.55-6.51-6.98-6.51-12.03 0-7.92 6.33-14.33 15.18-14.33m.33 19.37a.8.8 0 0 0-.66 0c-.24.1-.44.4-.81 1.01l-1.05 1.67-.35.59c-.36.9.37 1.85 1.33 1.74l.66-.18.13-.04a1.7 1.7 0 0 1 .97.04l.66.18c.96.11 1.7-.85 1.33-1.74l-.35-.59-1.05-1.67c-.37-.6-.57-.91-.8-1.01m-6.66-6.72a3.8 3.8 0 1 0 0 7.59 3.8 3.8 0 0 0 0-7.6m12.66 0a3.8 3.8 0 1 0 0 7.59 3.8 3.8 0 0 0 0-7.6" fill="#000"/></svg>