<svg width="100" height="100" fill="none" xmlns="http://www.w3.org/2000/svg"><path d="M100 50A50 50 0 1 1 0 50a50 50 0 0 1 100 0Z" fill="#00EB88" style="fill:#00eb88;fill:color(display-p3 0 .921 .5342)"/><path d="M83.5 30.88c-10.06 5.56-11.57 14.69-21.08 28.98-11.6 17.45-29.5 6.83-29.5 6.83a25.53 25.53 0 0 1-2.83-1.83 2.1 2.1 0 0 0-3.07.6 49.61 49.61 0 0 0-4.93 10.77c-1.58 5.28-6.74 1.71-7.23-.9-.31-1.7 3.04-10.22 8.17-17.42.37-.53.49-1.2.3-1.83-10.5-36.68 39.7-39.37 59.44-31.28 2.73 1.11 3.3 4.64.72 6.08Z" fill="#000"/></svg>