<svg width="100" height="100" fill="none" xmlns="http://www.w3.org/2000/svg"><path d="m78.52 21.48-1.94-1.95a1.81 1.81 0 0 0-2.58 0c-.7.71-.7 1.86 0 2.57l1.95 1.95a1.81 1.81 0 0 0 2.57 0c.71-.71.71-1.86 0-2.57ZM62.68 19.3a1.82 1.82 0 0 0-2.73 2.09 23.7 23.7 0 0 1 1.18 6.56c0 2.28-.59 2.72-1.4 2.72-1.41 0-2.13-2.5-2.13-2.51a1.82 1.82 0 0 0-3.05-.85c-.25.15-6.77 7.08-6.36 13.42l2.3 2.3c.32-.97.86-1.9 1.64-2.67 3.2-3.19 9.24-2 9.92-1.86.7.15 1.25.7 1.4 1.4.14.67 1.32 6.72-1.86 9.9a6.66 6.66 0 0 1-2.7 1.64l2.32 2.31a13.5 13.5 0 0 0 13.95-13.48c0-11.37-10.1-19.38-12.48-20.96ZM21.7 73.94a4.56 4.56 0 0 0 .58 5.73 4.57 4.57 0 0 0 5.73.57l21.4-14.26-13.44-13.44-14.26 21.4Zm20.75-33.82a1.82 1.82 0 0 0-2.8.28l-3.45 5.17c-.48.72-.39 1.68.23 2.3L54.07 65.5c.86.86 1.91.48 2.3.23l5.17-3.45a1.82 1.82 0 0 0 .28-2.8L42.45 40.13Z" fill="#fff"/><path d="M59.02 47.24c1.1-1.11 1.24-3.53 1.05-5.38-1.85-.18-4.27-.04-5.38 1.06a3.08 3.08 0 0 0 0 4.32 3.08 3.08 0 0 0 4.33 0ZM46.77 24.05a1.81 1.81 0 0 0 2.57 0c.7-.71.7-1.86 0-2.57l-1.95-1.95a1.81 1.81 0 0 0-2.57 0c-.7.71-.7 1.86 0 2.57l1.95 1.95Z" fill="#fff"/></svg>