<svg width="79" height="87" fill="none" xmlns="http://www.w3.org/2000/svg"><g clip-path="url(#a)"><path opacity=".2" fill-rule="evenodd" clip-rule="evenodd" d="M30.12 2.57a18.37 18.37 0 0 1 18.76 0L69.96 15.1A18.49 18.49 0 0 1 79 30.99V56c0 6.53-3.43 12.57-9.04 15.9L48.88 84.43a18.37 18.37 0 0 1-18.76 0L9.04 71.9A18.49 18.49 0 0 1 0 56.01V31c0-6.53 3.43-12.57 9.04-15.9L30.12 2.57Z" fill="#000"/><path d="M8 26.13 39 7l32 19.13v35.5L39 80 8 61.62V26.13Z" fill="#000"/><path fill-rule="evenodd" clip-rule="evenodd" d="M31.89 7.1c4.7-2.8 10.53-2.8 15.22 0l19.56 11.7a15.13 15.13 0 0 1 7.33 13v23.4c0 5.33-2.78 10.27-7.33 13L47.11 79.9a14.81 14.81 0 0 1-15.22 0L12.33 68.2A15.13 15.13 0 0 1 5 55.2V31.8c0-5.33 2.78-10.27 7.33-13L31.89 7.1Zm12.66 4.3a9.81 9.81 0 0 0-10.1 0L14.9 23.1a10.13 10.13 0 0 0-4.9 8.7v23.4c0 3.59 1.87 6.9 4.9 8.7l19.55 11.7a9.81 9.81 0 0 0 10.1 0L64.1 63.9a10.13 10.13 0 0 0 4.9-8.7V31.8c0-3.59-1.87-6.9-4.9-8.7L44.55 11.4Z" fill="url(#b)"/></g><defs><linearGradient id="b" x1="21.58" y1="19.71" x2="42.86" y2="73.65" gradientUnits="userSpaceOnUse"><stop stop-color="#B9C0FF" style="stop-color:#b9c0ff;stop-color:color(display-p3 .7251 .7526 1);stop-opacity:1"/><stop offset=".19" stop-color="#A5D5FF" style="stop-color:#a5d5ff;stop-color:color(display-p3 .6458 .8368 1);stop-opacity:1"/><stop offset=".51" stop-color="#E1FFDC" style="stop-color:#e1ffdc;stop-color:color(display-p3 .8815 1 .8625);stop-opacity:1"/><stop offset=".77" stop-color="#DBFBFF" style="stop-color:#dbfbff;stop-color:color(display-p3 .8583 .9828 1);stop-opacity:1"/><stop offset=".87" stop-color="#EFE5F4" style="stop-color:#efe5f4;stop-color:color(display-p3 .9369 .8984 .9583);stop-opacity:1"/><stop offset="1" stop-color="#DFB9F1" style="stop-color:#dfb9f1;stop-color:color(display-p3 .8752 .7251 .9458);stop-opacity:1"/></linearGradient><clipPath id="a"><path fill="#fff" d="M0 0h79v87H0z"/></clipPath></defs></svg>