<svg width="100" height="100" fill="none" xmlns="http://www.w3.org/2000/svg"><ellipse cx="50" cy="70.5" rx="22" ry="4.5" stroke="#fff" stroke-width="5"/><circle cx="50" cy="23" r="5" fill="#fff"/><circle cx="30" cy="29" r="4" fill="#fff"/><circle cx="15" cy="40" r="3" fill="#fff"/><circle cx="85" cy="40" r="3" fill="#fff"/><circle cx="70" cy="29" r="4" fill="#fff"/><path d="M44 45c3.5-1 3-15 6-15s2.5 14 6 15c3.66 1.05 8.57-11.72 11-10.5 3 1.5-2.42 13.54.5 15 4 2 12-8.5 14.5-6s-7.5 6-7.5 27l-24.5-5-24.5 5c0-21-10-24.5-7.5-27s10.5 8 14.5 6c2.92-1.46-2.5-13.5.5-15 2.43-1.22 7.34 11.55 11 10.5Z" fill="#fff"/></svg>