<svg width="125" height="55" viewBox="0 0 125 55" fill="none" xmlns="http://www.w3.org/2000/svg"><path d="M1.15 11v-.2h8.87l12.33 17.67h.2V16.74c0-.88-.05-1.62-.16-2.22a6.1 6.1 0 0 0-.42-1.5 2.18 2.18 0 0 0-.81-.97 4.11 4.11 0 0 0-1.12-.6c-.4-.16-.93-.3-1.6-.46v-.2h10.53v.2l-2.51 1.55v32.57h-.2L8.69 20.13h-.18v16.94c0 1.1.06 2 .18 2.67a3.4 3.4 0 0 0 1.98 2.52c.45.18 1.1.37 1.93.56V43H2.07v-.18l2.53-1.57V14.29l-1.14-1.75L1.15 11Zm31.5 32v-.18l2.55-1.57V19.9l-2.54-1.57v-.18h11.72v.18l-2.51 1.57v21.34l2.51 1.57V43H32.66Zm15.2-12.42a13 13 0 0 1 1.05-5.28c.7-1.63 1.65-3 2.85-4.09 1.2-1.1 2.59-1.97 4.18-2.58a13.9 13.9 0 0 1 5.03-.92c1.98 0 3.73.28 5.28.85a9.42 9.42 0 0 1 3.68 2.23l-4.18 5.84-.2-.18c.17-.33.25-.83.25-1.49a4.8 4.8 0 0 0-1.24-3.39 4.14 4.14 0 0 0-3.23-1.35c-1.96 0-3.51.85-4.65 2.54-1.14 1.68-1.7 4.17-1.7 7.46 0 3.52.52 6.18 1.56 8a5.1 5.1 0 0 0 4.7 2.71 6.9 6.9 0 0 0 3.44-.83v-3.37c0-3.08-1.47-5.07-4.4-5.97v-.18h10.06v12.87h-.18l-3-1.82c-1.76 1.21-4.04 1.82-6.84 1.82-1.77 0-3.4-.27-4.9-.8a11.83 11.83 0 0 1-3.95-2.41 10.8 10.8 0 0 1-2.65-4.05 15.44 15.44 0 0 1-.97-5.61ZM75.37 43v-.18l2.54-1.57V19.73l-2.54-1.4v-.17h11.5v.18l-2.3 1.39v8.78h7.26v-4.65c0-1.36-.1-2.42-.29-3.19a3.33 3.33 0 0 0-.74-1.57c-.28-.3-.7-.55-1.26-.76v-.18h11.5v.18l-2.54 1.39v21.52l2.54 1.57V43h-11.5v-.18l2.3-1.57V29.12l-2.77 2.16h-4.5v6.01c0 1.37.1 2.43.3 3.2.2.76.43 1.29.72 1.59.3.28.72.53 1.28.74V43h-11.5Zm28.21-16.2v-8.64h20.48v8.65h-.17c-.2-.96-.42-1.75-.66-2.36a6.97 6.97 0 0 0-.98-1.82 3.6 3.6 0 0 0-1.69-1.28 6.83 6.83 0 0 0-2.56-.43h-.83v16.6c0 .72.08 1.37.25 1.95.16.59.37 1.06.63 1.42a4.65 4.65 0 0 0 1.95 1.57c.33.14.69.26 1.08.36V43H106.6v-.18l3.9-1.57V20.92h-.82c-1.02 0-1.88.14-2.59.4a3.7 3.7 0 0 0-1.68 1.29 7.55 7.55 0 0 0-.99 1.8c-.22.62-.43 1.42-.63 2.4h-.2Z" fill="#fff"/></svg>