<svg width="512" height="512" fill="none" xmlns="http://www.w3.org/2000/svg"><path fill-rule="evenodd" clip-rule="evenodd" d="M441.3 179.36a62.72 62.72 0 0 0 26.06 10.08A29.28 29.28 0 0 1 492 213.28a229.6 229.6 0 0 1 4 42.72 231.93 231.93 0 0 1-4.16 40.48 29.6 29.6 0 0 1-25.12 24.32 62.4 62.4 0 0 0-50.08 86.24A29.6 29.6 0 0 1 408 440.8a240.1 240.1 0 0 1-64 38.24 29.44 29.44 0 0 1-34.56-9.76A62.72 62.72 0 0 0 259.2 444a61.92 61.92 0 0 0-51.2 26.88 29.44 29.44 0 0 1-24 12.48 31.98 31.98 0 0 1-10.08-1.76 237.75 237.75 0 0 1-69.76-40.16A29.12 29.12 0 0 1 96 406.56a62.4 62.4 0 0 0-50.88-88.16 29.6 29.6 0 0 1-26.08-24.8 229.87 229.87 0 0 1 1.44-82.4 29.6 29.6 0 0 1 25.92-23.84 62.4 62.4 0 0 0 52-85.76 29.76 29.76 0 0 1 9.28-34.08 237.13 237.13 0 0 1 65.6-36.8A29.6 29.6 0 0 1 206.72 40a62.56 62.56 0 0 0 98.56 0 29.6 29.6 0 0 1 33.44-9.28 235.99 235.99 0 0 1 70.4 40.8 29.44 29.44 0 0 1 8.8 33.12 62.72 62.72 0 0 0 23.37 74.72ZM256 370c62.96 0 114-51.04 114-114s-51.04-114-114-114-114 51.04-114 114 51.04 114 114 114Z" fill="#fff"/></svg>