<svg width="80" height="80" fill="none" xmlns="http://www.w3.org/2000/svg"><path d="M53.72 0h-1.84c-.38 0-.68.3-.68.68v1.84c0 .38.3.68.68.68h1.84c.38 0 .68-.3.68-.68V.68c0-.38-.3-.68-.68-.68Zm-12.8 12.8h-1.84c-.38 0-.68.3-.68.68v1.84c0 .38.3.68.68.68h1.84c.38 0 .68-.3.68-.68v-1.84c0-.38-.3-.68-.68-.68Zm-14.64 9.6h1.84c.38 0 .68-.3.68-.68v-5.04c0-.38-.3-.68-.68-.68h-1.84c-.38 0-.68.3-.68.68v5.04c0 .38.3.68.68.68Zm8.24 0c.38 0 .68-.3.68-.68v-8.24c0-.38-.3-.68-.68-.68h-1.84c-.38 0-.68.3-.68.68v8.24c0 .38.3.68.68.68h1.84Zm3.88 0v5.72c0 .38.3.68.68.68h1.84c.38 0 .68-.3.68-.68v-8.24c0-.38-.3-.68-.68-.68h-1.84c-.38 0-.68.3-.68.68v2.52Zm24.92 3.2h-1.84c-.38 0-.68.3-.68.68v5.04c0 .38.3.68.68.68h1.84c.38 0 .68.3.68.68v1.84c0 .38.3.68.68.68h1.84c.38 0 .68-.3.68-.68v-5.04c0-.38-.3-.68-.68-.68h-1.84a.67.67 0 0 1-.68-.68v-1.84c0-.38-.3-.68-.68-.68Zm6.4 0h-1.84c-.38 0-.68.3-.68.68v1.84c0 .38.3.68.68.68h1.84c.38 0 .68-.3.68-.68v-1.84c0-.38-.3-.68-.68-.68Zm6.4 0h-1.84c-.38 0-.68.3-.68.68v1.84c0 .38.3.68.68.68h1.84c.38 0 .68-.3.68-.68v-1.84c0-.38-.3-.68-.68-.68Zm-57.6 3.2h-1.84a.67.67 0 0 1-.68-.68v-1.84c0-.38-.3-.68-.68-.68H.68c-.38 0-.68.3-.68.68v1.84c0 .38.3.68.68.68h1.84c.38 0 .68.3.68.68v1.84c0 .38-.3.68-.68.68H.68c-.38 0-.68.3-.68.68v5.04c0 .38.3.68.68.68h17.84c.38 0 .68-.3.68-.68v-1.84c0-.38.3-.68.68-.68h1.84c.38 0 .68-.3.68-.68v-1.84c0-.38-.3-.68-.68-.68h-1.84a.67.67 0 0 1-.68-.68v-1.84c0-.38-.3-.68-.68-.68ZM9.6 35.2H7.08a.67.67 0 0 1-.68-.68v-5.04c0-.38.3-.68.68-.68h1.84c.38 0 .68.3.68.68v1.84c0 .38.3.68.68.68h1.84c.38 0 .68.3.68.68v1.84c0 .38-.3.68-.68.68H9.6Zm69.72-6.4h-1.84c-.38 0-.68.3-.68.68v1.84c0 .38.3.68.68.68h1.84c.38 0 .68-.3.68-.68v-1.84c0-.38-.3-.68-.68-.68Zm-6.4 3.2h-1.84c-.38 0-.68.3-.68.68v1.84c0 .38.3.68.68.68h1.84c.38 0 .68-.3.68-.68v-1.84c0-.38-.3-.68-.68-.68Zm-51.2 6.4h-1.84c-.38 0-.68.3-.68.68v1.84c0 .38.3.68.68.68h1.84c.38 0 .68-.3.68-.68v-1.84c0-.38-.3-.68-.68-.68Zm32.68 3.2h2.52c.38 0 .68-.3.68-.68v-1.84c0-.38-.3-.68-.68-.68h-1.84a.67.67 0 0 1-.68-.68v-1.84c0-.38-.3-.68-.68-.68h-1.84c-.38 0-.68.3-.68.68v1.84c0 .38-.3.68-.68.68h-1.84c-.38 0-.68.3-.68.68v1.84c0 .38.3.68.68.68h5.72Zm6.4-.68c0 .38-.3.68-.68.68h-1.84c-.38 0-.68.3-.68.68v1.84c0 .38-.3.68-.68.68h-1.84c-.38 0-.68.3-.68.68v1.84c0 .38.3.68.68.68h5.04c.38 0 .68-.3.68-.68v-1.84c0-.38.3-.68.68-.68h1.84c.38 0 .68.3.68.68v1.84c0 .38.3.68.68.68h1.84c.38 0 .68-.3.68-.68v-5.04c0-.38.3-.68.68-.68h1.84c.38 0 .68-.3.68-.68v-1.84c0-.38-.3-.68-.68-.68h-8.24c-.38 0-.68.3-.68.68v1.84Zm18.52-2.52h-5.04c-.38 0-.68.3-.68.68v1.84c0 .38.3.68.68.68h1.84c.38 0 .68.3.68.68v1.84c0 .38.3.68.68.68h1.84c.38 0 .68-.3.68-.68v-5.04c0-.38-.3-.68-.68-.68ZM6.4 42.28c0-.38-.3-.68-.68-.68H.68c-.38 0-.68.3-.68.68v11.44c0 .38.3.68.68.68h1.84c.38 0 .68-.3.68-.68v-8.24c0-.38.3-.68.68-.68h1.84c.38 0 .68-.3.68-.68v-1.84Zm12.12-.68h-1.84c-.38 0-.68.3-.68.68v1.84c0 .38.3.68.68.68h1.84c.38 0 .68-.3.68-.68v-1.84c0-.38-.3-.68-.68-.68Zm3.2 3.2h-1.84c-.38 0-.68.3-.68.68v1.84c0 .38.3.68.68.68h1.84c.38 0 .68-.3.68-.68v-1.84c0-.38-.3-.68-.68-.68Zm28.8 0h-1.84c-.38 0-.68.3-.68.68v1.84c0 .38.3.68.68.68h1.84c.38 0 .68-.3.68-.68v-1.84c0-.38-.3-.68-.68-.68Zm22.4 0h-1.84c-.38 0-.68.3-.68.68v1.84c0 .38.3.68.68.68h1.84c.38 0 .68-.3.68-.68v-1.84c0-.38-.3-.68-.68-.68ZM7.08 51.2h8.24c.38 0 .68-.3.68-.68v-1.84c0-.38-.3-.68-.68-.68h-1.84a.67.67 0 0 1-.68-.68v-5.04c0-.38-.3-.68-.68-.68h-1.84c-.38 0-.68.3-.68.68v1.84c0 .38-.3.68-.68.68H7.08c-.38 0-.68.3-.68.68v5.04c0 .38.3.68.68.68ZM79.32 48h-5.04c-.38 0-.68.3-.68.68v1.84c0 .38.3.68.68.68h1.84c.38 0 .68.3.68.68v5.04c0 .38-.3.68-.68.68h-5.04c-.38 0-.68.3-.68.68v1.84c0 .38.3.68.68.68h8.24c.38 0 .68-.3.68-.68V48.68c0-.38-.3-.68-.68-.68Zm-57.6 3.2h-1.84c-.38 0-.68.3-.68.68v1.84c0 .38.3.68.68.68h1.84c.38 0 .68-.3.68-.68v-1.84c0-.38-.3-.68-.68-.68ZM32 55.08c0-.38.3-.68.68-.68h1.84c.38 0 .68-.3.68-.68v-1.84c0-.38-.3-.68-.68-.68h-5.04c-.38 0-.68.3-.68.68v1.84c0 .38-.3.68-.68.68h-1.84c-.38 0-.68.3-.68.68v5.04c0 .38.3.68.68.68h1.84c.38 0 .68-.3.68-.68v-1.84c0-.38.3-.68.68-.68h1.84c.38 0 .68-.3.68-.68v-1.84Zm28.12 2.52h-1.84c-.38 0-.68.3-.68.68v1.84c0 .38.3.68.68.68h1.84c.38 0 .68-.3.68-.68v-1.84c0-.38-.3-.68-.68-.68Zm-28.8 3.2h-1.84c-.38 0-.68.3-.68.68v1.84c0 .38.3.68.68.68h1.84c.38 0 .68-.3.68-.68v-1.84c0-.38-.3-.68-.68-.68Zm48 6.4h-5.04c-.38 0-.68.3-.68.68v1.84c0 .38.3.68.68.68h1.84c.38 0 .68.3.68.68v1.84c0 .38.3.68.68.68h1.84c.38 0 .68-.3.68-.68v-5.04c0-.38-.3-.68-.68-.68Zm-44.8 3.2h-1.84c-.38 0-.68.3-.68.68v1.84c0 .38.3.68.68.68h1.84c.38 0 .68-.3.68-.68v-1.84c0-.38-.3-.68-.68-.68Zm38.4 0h-1.84c-.38 0-.68.3-.68.68v1.84c0 .38.3.68.68.68h1.84c.38 0 .68-.3.68-.68v-1.84c0-.38-.3-.68-.68-.68Zm-41.6 3.2h-1.84a.67.67 0 0 1-.68-.68v-1.84c0-.38.3-.68.68-.68h1.84c.38 0 .68-.3.68-.68v-1.84c0-.38-.3-.68-.68-.68h-1.84a.67.67 0 0 1-.68-.68v-1.84c0-.38-.3-.68-.68-.68h-1.84c-.38 0-.68.3-.68.68v14.64c0 .38.3.68.68.68h5.04c.38 0 .68-.3.68-.68v-5.04c0-.38-.3-.68-.68-.68Zm6.4 0h-1.84c-.38 0-.68.3-.68.68v1.84c0 .38.3.68.68.68h1.84c.38 0 .68-.3.68-.68v-1.84c0-.38-.3-.68-.68-.68Z" fill="#000"/><path d="M70.4 74.28c0-.38-.3-.68-.68-.68h-1.84a.67.67 0 0 1-.68-.68v-5.04c0-.38.3-.68.68-.68h1.84c.38 0 .68-.3.68-.68v-5.04c0-.38-.3-.68-.68-.68h-1.84a.67.67 0 0 1-.68-.68v-5.04c0-.38.3-.68.68-.68h1.84c.38 0 .68-.3.68-.68v-1.84c0-.38-.3-.68-.68-.68H55.08a.67.67 0 0 1-.68-.68v-1.84c0-.38-.3-.68-.68-.68h-1.84c-.38 0-.68.3-.68.68v1.84c0 .38-.3.68-.68.68h-5.04a.67.67 0 0 1-.68-.68v-5.04c0-.38-.3-.68-.68-.68h-1.84a.67.67 0 0 1-.68-.68v-1.84c0-.38.3-.68.68-.68h1.84c.38 0 .68-.3.68-.68v-1.84c0-.38-.3-.68-.68-.68h-5.04a.67.67 0 0 1-.68-.68v-1.84c0-.38.3-.68.68-.68h5.04c.38 0 .68.3.68.68v1.84c0 .38.3.68.68.68h1.84c.38 0 .68-.3.68-.68v-8.24c0-.38.3-.68.68-.68h1.84c.38 0 .68.3.68.68v1.84c0 .38.3.68.68.68h1.84c.38 0 .68.3.68.68v1.84c0 .38.3.68.68.68h5.04c.38 0 .68-.3.68-.68v-1.84c0-.38-.3-.68-.68-.68h-1.84a.67.67 0 0 1-.68-.68v-5.04c0-.38-.3-.68-.68-.68h-1.84a.67.67 0 0 1-.68-.68V7.08c0-.38-.3-.68-.68-.68h-1.84c-.38 0-.68.3-.68.68v1.84c0 .38-.3.68-.68.68h-1.84a.67.67 0 0 1-.68-.68V3.88c0-.38-.3-.68-.68-.68H35.88c-.38 0-.68.3-.68.68v1.84c0 .38-.3.68-.68.68h-1.84a.67.67 0 0 1-.68-.68V.68c0-.38-.3-.68-.68-.68h-1.84c-.38 0-.68.3-.68.68v1.84c0 .38-.3.68-.68.68h-1.84c-.38 0-.68.3-.68.68v1.84c0 .38.3.68.68.68h1.84c.38 0 .68.3.68.68v1.84c0 .38-.3.68-.68.68h-1.84c-.38 0-.68.3-.68.68v1.84c0 .38.3.68.68.68h5.04c.38 0 .68-.3.68-.68v-1.84c0-.38.3-.68.68-.68h1.84c.38 0 .68.3.68.68v1.84c0 .38.3.68.68.68h1.84c.38 0 .68-.3.68-.68V7.08c0-.38.3-.68.68-.68h5.04c.38 0 .68.3.68.68v5.04c0 .38.3.68.68.68h1.84c.38 0 .68.3.68.68v1.84c0 .38-.3.68-.68.68h-5.04c-.38 0-.68.3-.68.68v1.84c0 .38.3.68.68.68h1.84c.38 0 .68.3.68.68v1.84c0 .38.3.68.68.68h1.84c.38 0 .68-.3.68-.68v-1.84c0-.38.3-.68.68-.68h1.84c.38 0 .68.3.68.68v5.04c0 .38-.3.68-.68.68h-5.04c-.38 0-.68.3-.68.68v5.04c0 .38-.3.68-.68.68h-8.24c-.38 0-.68.3-.68.68v1.84c0 .38-.3.68-.68.68h-1.84a.67.67 0 0 1-.68-.68v-5.04c0-.38.3-.68.68-.68h1.84c.38 0 .68-.3.68-.68v-1.84c0-.38-.3-.68-.68-.68H19.88c-.38 0-.68.3-.68.68v1.84c0 .38.3.68.68.68h8.24c.38 0 .68.3.68.68v5.04c0 .38-.3.68-.68.68h-5.04c-.38 0-.68.3-.68.68v1.84c0 .38.3.68.68.68h1.84c.38 0 .68.3.68.68v1.84c0 .38-.3.68-.68.68h-1.84c-.38 0-.68.3-.68.68v1.84c0 .38.3.68.68.68h8.24c.38 0 .68.3.68.68v1.84c0 .38.3.68.68.68h1.84c.38 0 .68-.3.68-.68v-5.04c0-.38-.3-.68-.68-.68h-1.84a.67.67 0 0 1-.68-.68v-1.84c0-.38.3-.68.68-.68h1.84c.38 0 .68.3.68.68v1.84c0 .38.3.68.68.68h1.84c.38 0 .68.3.68.68v8.24c0 .38.3.68.68.68h1.84c.38 0 .68.3.68.68v1.84c0 .38.3.68.68.68h8.24c.38 0 .68.3.68.68v1.84c0 .38-.3.68-.68.68H39.08a.67.67 0 0 1-.68-.68v-1.84c0-.38-.3-.68-.68-.68h-1.84c-.38 0-.68.3-.68.68v8.24c0 .38.3.68.68.68h1.84c.38 0 .68.3.68.68v5.04c0 .38.3.68.68.68h1.84c.38 0 .68-.3.68-.68v-8.24c0-.38.3-.68.68-.68h8.24c.38 0 .68.3.68.68v1.84c0 .38-.3.68-.68.68h-1.84c-.38 0-.68.3-.68.68v1.84c0 .38-.3.68-.68.68h-1.84c-.38 0-.68.3-.68.68v1.84c0 .38-.3.68-.68.68h-1.84c-.38 0-.68.3-.68.68v1.84c0 .38.3.68.68.68h1.84c.38 0 .68.3.68.68v1.84c0 .38.3.68.68.68h24.24c.38 0 .68-.3.68-.68v-1.84ZM57.6 54.4h5.72c.38 0 .68.3.68.68v8.24c0 .38-.3.68-.68.68h-8.24a.67.67 0 0 1-.68-.68v-8.24c0-.38.3-.68.68-.68h2.52Zm3.88 19.2a.67.67 0 0 1-.68-.68v-1.84c0-.38-.3-.68-.68-.68h-5.04c-.38 0-.68.3-.68.68v1.84c0 .38-.3.68-.68.68h-5.04a.67.67 0 0 1-.68-.68v-1.84c0-.38.3-.68.68-.68h5.04c.38 0 .68-.3.68-.68v-1.84c0-.38.3-.68.68-.68h8.24c.38 0 .68.3.68.68v5.04c0 .38-.3.68-.68.68h-1.84Zm-20.56 3.2h-1.84c-.38 0-.68.3-.68.68v1.84c0 .38.3.68.68.68h1.84c.38 0 .68-.3.68-.68v-1.84c0-.38-.3-.68-.68-.68Zm38.4 0h-1.84a.67.67 0 0 1-.68-.68v-1.84c0-.38-.3-.68-.68-.68h-1.84c-.38 0-.68.3-.68.68v1.84c0 .38-.3.68-.68.68h-1.84c-.38 0-.68.3-.68.68v1.84c0 .38.3.68.68.68h8.24c.38 0 .68-.3.68-.68v-1.84c0-.38-.3-.68-.68-.68Z" fill="#000"/><path d="M.68 22.41h21.04c.37 0 .68-.3.68-.68V.68c0-.37-.3-.68-.68-.68H.68A.69.69 0 0 0 0 .68v21.04c0 .37.3.68.68.68v.01ZM3.2 16V3.59c0-.22.18-.39.39-.39h15.22c.22 0 .39.18.39.39v15.22c0 .22-.18.39-.39.39H3.59a.39.39 0 0 1-.39-.39V16Z" fill="#000"/><path d="M7.08 16.01h8.24c.37 0 .68-.3.68-.68V7.08c0-.37-.3-.68-.68-.68H7.08c-.37 0-.68.3-.68.68v8.24c0 .37.3.68.68.68v.01ZM79.32 0H58.28a.69.69 0 0 0-.68.68v21.04c0 .37.3.68.68.68h21.04c.37 0 .68-.3.68-.68V.68c0-.37-.3-.68-.68-.68ZM76.8 6.4v12.41c0 .22-.18.39-.39.39H61.19a.39.39 0 0 1-.39-.39V3.59c0-.22.18-.39.39-.39h15.22c.22 0 .39.18.39.39V6.4Z" fill="#000"/><path d="M72.92 6.4h-8.24c-.37 0-.68.3-.68.68v8.24c0 .37.3.68.68.68h8.24c.37 0 .68-.3.68-.68V7.08c0-.37-.3-.68-.68-.68Zm-51.2 51.2H.68a.69.69 0 0 0-.68.68v21.04c0 .37.3.68.68.68h21.04c.37 0 .68-.3.68-.68V58.28c0-.37-.3-.68-.68-.68ZM19.2 64v12.41c0 .22-.18.39-.39.39H3.59a.39.39 0 0 1-.39-.39V61.19c0-.22.18-.39.39-.39h15.22c.22 0 .39.18.39.39V64Z" fill="#000"/><path d="M15.32 64H7.08c-.37 0-.68.3-.68.68v8.24c0 .37.3.68.68.68h8.24c.37 0 .68-.3.68-.68v-8.24c0-.37-.3-.68-.68-.68Z" fill="#000"/></svg>