<svg width="100" height="100" fill="none" xmlns="http://www.w3.org/2000/svg"><path d="M50 100A50 50 0 1 0 50 0a50 50 0 0 0 0 100Z" fill="#FF174E" style="fill:#ff174e;fill:color(display-p3 1 .0892 .3078)"/><path d="M77.5 57.33a27.5 27.5 0 0 1-55 0 25.46 25.46 0 0 1 7.87-19.63c1.1-1.08 2.3-2.16 3.57-3.3 5.2-4.59 10.56-9.33 10.56-17.4a1.83 1.83 0 0 1 2.85-1.53 30.97 30.97 0 0 1 10.19 38.25 17.65 17.65 0 0 0 7.2-7.13A16.37 16.37 0 0 0 66.5 39a1.83 1.83 0 0 1 3.14-1.29 28.1 28.1 0 0 1 7.86 19.62Z" fill="#000"/></svg>