<svg width="24" height="24" viewBox="0 0 24 24" fill="none" xmlns="http://www.w3.org/2000/svg">
<path fill-rule="evenodd" clip-rule="evenodd" d="M17.2992 3C15.1427 3 13.2257 3.97283 12.0001 5.48264C10.7743 3.97283 8.85725 3 6.70094 3C3.00013 3 0 5.86238 0 9.39345C0 10.6681 0.39259 11.8547 1.06635 12.8519C2.74523 15.8094 7.59241 19.8678 10.2335 21.9517C10.8302 22.4225 11.1286 22.6579 11.4998 22.7595C11.8105 22.8445 12.1897 22.8445 12.5003 22.7595C12.8716 22.6579 13.1699 22.4225 13.7666 21.9517C16.4077 19.8678 21.2548 15.8093 22.9338 12.8519C23.6074 11.8547 24 10.6681 24 9.39345C24 5.86238 20.9999 3 17.2992 3Z" fill="#FF004A" style="fill:#FF004A;fill:color(display-p3 1.0000 0.0000 0.2902);fill-opacity:1;"/>
</svg>
