<svg width="50" height="50" fill="none" xmlns="http://www.w3.org/2000/svg"><path d="M4 12h5.5m5.5 0H9.5m0 0v27" stroke="#fff" stroke-width="5" stroke-linecap="round"/><path d="m17 39 1.3-5.85M29 39l-1.3-5.85m-9.4 0L23 12l4.7 21.15m-9.4 0h9.4M35 12l5 13.5M45 39l-5-13.5m0 0L45 12m-5 13.5L35 39" stroke="#fff" stroke-width="5" stroke-linecap="round" stroke-linejoin="round"/><circle cx="36" cy="36" r="14" fill="#000" fill-opacity=".3"/><circle cx="36" cy="36" r="12" fill="#fff"/><path d="M32.5 31.53A3.25 3.25 0 0 1 35.27 30c1.78 0 3.23 1.4 3.23 3.13 0 2.65-6 8.87-6 8.87h7" stroke="#000" stroke-width="4" stroke-linecap="round" stroke-linejoin="round"/></svg>