<svg width="40" height="40" fill="none" xmlns="http://www.w3.org/2000/svg"><path fill-rule="evenodd" clip-rule="evenodd" d="M20 9.93A10.77 10.77 0 0 1 28.39 6C34.25 6 39 10.53 39 16.12c0 2.02-.62 3.9-1.69 5.48C34.65 26.28 26.98 32.7 22.8 36c-.95.75-1.42 1.13-2 1.29-.5.13-1.1.13-1.6 0-.58-.16-1.05-.54-2-1.28C13.02 32.7 5.35 26.28 2.7 21.6A9.74 9.74 0 0 1 1 16.12C1 10.53 5.75 6 11.61 6c3.41 0 6.45 1.54 8.39 3.93ZM22 16a2 2 0 1 0-4 0v3h-3a2 2 0 1 0 0 4h3v3a2 2 0 1 0 4 0v-3h3a2 2 0 1 0 0-4h-3v-3Z" fill="#fff"/></svg>