<svg width="40" height="40" fill="none" xmlns="http://www.w3.org/2000/svg"><path fill-rule="evenodd" clip-rule="evenodd" d="M20 13.69A7.37 7.37 0 0 1 25.74 11c4.01 0 7.26 3.1 7.26 6.93 0 1.38-.43 2.66-1.16 3.74-1.85 3.26-7.25 7.76-10.07 9.98-.6.47-.9.7-1.27.8-.31.09-.69.09-1 0-.37-.1-.67-.33-1.27-.8-2.82-2.22-8.22-6.72-10.07-9.98A6.66 6.66 0 0 1 7 17.93C7 14.1 10.25 11 14.26 11A7.37 7.37 0 0 1 20 13.69ZM21.25 18a1.25 1.25 0 1 0-2.5 0v1.75H17a1.25 1.25 0 1 0 0 2.5h1.75V24a1.25 1.25 0 1 0 2.5 0v-1.75H23a1.25 1.25 0 1 0 0-2.5h-1.75V18Z" fill="#fff"/></svg>