<svg width="50" height="50" fill="none" xmlns="http://www.w3.org/2000/svg"><circle cx="25" cy="25" r="25" fill="#fff"/><path d="M5.34 48.58c-1.75.46-2.63.7-3.24.46A2 2 0 0 1 .95 47.9c-.23-.61 0-1.49.47-3.24L4 35l11 11z" fill="#fff"/><path d="M25 9c.5 0 .91.24 1.23.53q.47.46.8 1.06c.48.8.88 1.8 1.27 2.82s.76 2.05 1.12 2.87c.35.83.77 1.43.87 1.51s.78.3 1.64.4 1.92.15 2.96.22c1.05.08 2.08.17 2.96.39q.65.15 1.2.47c.37.23.72.57.87 1.06s.06.98-.1 1.39q-.26.59-.72 1.12c-.58.72-1.36 1.43-2.17 2.13s-1.64 1.4-2.27 2-1.07 1.21-1.1 1.33-.04.87.14 1.76c.17.88.45 1.95.71 3.01s.5 2.12.56 3.06q.07.7-.05 1.34c-.1.44-.3.9-.7 1.2s-.87.36-1.3.32a4 4 0 0 1-1.24-.36c-.83-.36-1.72-.92-2.6-1.5-.9-.6-1.78-1.2-2.53-1.65A6 6 0 0 0 25 34.8c-.12 0-.8.24-1.55.68s-1.64 1.06-2.53 1.64c-.88.59-1.77 1.15-2.6 1.51q-.62.29-1.24.36c-.43.04-.9-.02-1.3-.32s-.6-.76-.7-1.2q-.13-.64-.05-1.34c.07-.94.3-2 .56-3.06s.54-2.13.71-3.01c.18-.89.18-1.63.14-1.76a6 6 0 0 0-1.1-1.33c-.63-.6-1.47-1.3-2.27-2s-1.59-1.41-2.17-2.13q-.46-.52-.71-1.12c-.17-.4-.26-.9-.11-1.4.15-.48.5-.82.86-1.05q.56-.32 1.21-.47c.88-.22 1.91-.31 2.96-.39 1.04-.07 2.1-.12 2.96-.22s1.54-.32 1.64-.4.52-.68.87-1.5c.36-.83.73-1.86 1.12-2.88s.8-2.02 1.26-2.82q.36-.6.8-1.06C24.1 9.24 24.52 9 25 9" fill="#000"/></svg>