<svg width="50" height="50" viewBox="0 0 50 50" fill="none" xmlns="http://www.w3.org/2000/svg">
<path d="M25 9C25.4924 9 25.9132 9.24041 26.2305 9.53393C26.5478 9.82745 26.8024 10.1864 27.0378 10.5888C27.5086 11.3936 27.908 12.3908 28.2976 13.4082C28.6873 14.4256 29.0608 15.459 29.4175 16.2829C29.7741 17.1068 30.1863 17.7142 30.2866 17.7903C30.3869 17.8665 31.0674 18.0909 31.9273 18.1908C32.7872 18.2907 33.8467 18.3392 34.8929 18.4122C35.939 18.4851 36.9677 18.5803 37.8455 18.7996C38.2844 18.9092 38.6913 19.0469 39.0564 19.2717C39.4216 19.4964 39.7702 19.837 39.9224 20.3265C40.0745 20.816 39.9839 21.3138 39.8149 21.7199C39.6459 22.126 39.3954 22.4848 39.102 22.8431C38.5152 23.5599 37.736 24.2706 36.9307 24.9723C36.1254 25.6741 35.2947 26.3655 34.6553 26.9746C34.0158 27.5837 33.5933 28.1797 33.555 28.3029C33.5167 28.4261 33.5234 29.1721 33.6982 30.0577C33.873 30.9433 34.1542 32.0099 34.4111 33.0725C34.668 34.135 34.9026 35.1859 34.9743 36.1263C35.0101 36.5965 35.0106 37.0417 34.9189 37.4741C34.8273 37.9065 34.6207 38.3632 34.2223 38.6657C33.8239 38.9683 33.3452 39.0305 32.9234 38.988C32.5017 38.9455 32.0999 38.8108 31.6832 38.6299C30.8497 38.268 29.963 37.7062 29.0756 37.1225C28.1883 36.5388 27.3046 35.9324 26.5528 35.4849C25.801 35.0375 25.124 34.8012 25 34.8012C24.876 34.8012 24.199 35.0375 23.4472 35.4849C22.6954 35.9324 21.8117 36.5388 20.9243 37.1225C20.0369 37.7062 19.1503 38.268 18.3168 38.6299C17.9001 38.8108 17.4983 38.9455 17.0766 38.988C16.6548 39.0305 16.1761 38.9682 15.7777 38.6657C15.3793 38.3632 15.1727 37.9065 15.081 37.4741C14.9894 37.0417 14.9899 36.5965 15.0257 36.1263C15.0974 35.1859 15.332 34.135 15.5889 33.0725C15.8458 32.0099 16.127 30.9433 16.3018 30.0577C16.4766 29.1721 16.4833 28.4261 16.445 28.3029C16.4067 28.1797 15.9842 27.5837 15.3447 26.9746C14.7053 26.3655 13.8746 25.6741 13.0693 24.9723C12.2639 24.2706 11.4848 23.5599 10.898 22.8431C10.6046 22.4848 10.3541 22.126 10.1851 21.7199C10.016 21.3138 9.92547 20.816 10.0776 20.3265C10.2298 19.837 10.5784 19.4964 10.9435 19.2717C11.3087 19.0469 11.7156 18.9092 12.1545 18.7996C13.0323 18.5803 14.0609 18.4851 15.1071 18.4122C16.1532 18.3392 17.2128 18.2907 18.0727 18.1908C18.9325 18.0909 19.6131 17.8665 19.7134 17.7903C19.8137 17.7142 20.2259 17.1068 20.5825 16.2829C20.9391 15.459 21.3127 14.4256 21.7024 13.4082C22.092 12.3908 22.4913 11.3936 22.9622 10.5888C23.1976 10.1864 23.4522 9.82745 23.7695 9.53393C24.0868 9.24041 24.5075 9 25 9Z" fill="black"/>
</svg>
