<svg width="390" height="844" fill="none" xmlns="http://www.w3.org/2000/svg"><g clip-path="url(#a)"><path fill="#000" d="M0 0h390v844H0z"/><rect x="201" y="416" width="416" height="189" rx="16" transform="rotate(-90 201 416)" fill="#F42C50" style="fill:#f42c50;fill:color(display-p3 .9554 .1724 .3123);fill-opacity:1"/><g opacity=".3" clip-path="url(#b)"><path d="M296 350v-18" stroke="#000" style="stroke:#000;stroke-opacity:1" stroke-width="6" stroke-linecap="round"/></g><g opacity=".3"><g clip-path="url(#c)"><path d="M296 84V66" stroke="#000" style="stroke:#000;stroke-opacity:1" stroke-width="6" stroke-linecap="round"/></g><g clip-path="url(#d)"><path d="M305 75h-18" stroke="#000" style="stroke:#000;stroke-opacity:1" stroke-width="6" stroke-linecap="round"/></g></g><rect x="189" y="428" width="416" height="189" rx="16" transform="rotate(90 189 428)" fill="#EB9CFF" style="fill:#eb9cff;fill:color(display-p3 .9225 .6125 1);fill-opacity:1"/><g opacity=".3" clip-path="url(#e)"><path d="M94 494v18" stroke="#000" style="stroke:#000;stroke-opacity:1" stroke-width="6" stroke-linecap="round"/></g><g opacity=".3"><g clip-path="url(#f)"><path d="M94 760v18" stroke="#000" style="stroke:#000;stroke-opacity:1" stroke-width="6" stroke-linecap="round"/></g><g clip-path="url(#g)"><path d="M85 769h18" stroke="#000" style="stroke:#000;stroke-opacity:1" stroke-width="6" stroke-linecap="round"/></g></g><rect x="201" y="844" width="416" height="189" rx="16" transform="rotate(-90 201 844)" fill="#4550FF" style="fill:#4550ff;fill:color(display-p3 .2708 .3147 1);fill-opacity:1"/><g opacity=".3" clip-path="url(#h)"><path d="M296 778v-18" stroke="#000" style="stroke:#000;stroke-opacity:1" stroke-width="6" stroke-linecap="round"/></g><g opacity=".3"><g clip-path="url(#i)"><path d="M296 512v-18" stroke="#000" style="stroke:#000;stroke-opacity:1" stroke-width="6" stroke-linecap="round"/></g><g clip-path="url(#j)"><path d="M305 503h-18" stroke="#000" style="stroke:#000;stroke-opacity:1" stroke-width="6" stroke-linecap="round"/></g></g><rect x="189" width="416" height="189" rx="16" transform="rotate(90 189 0)" fill="#FFC600" style="fill:#ffc600;fill:color(display-p3 1 .7778 0);fill-opacity:1"/><g opacity=".3" clip-path="url(#k)"><path d="M94 66v18" stroke="#000" style="stroke:#000;stroke-opacity:1" stroke-width="6" stroke-linecap="round"/></g><g opacity=".3"><g clip-path="url(#l)"><path d="M94 332v18" stroke="#000" style="stroke:#000;stroke-opacity:1" stroke-width="6" stroke-linecap="round"/></g><g clip-path="url(#m)"><path d="M85 341h18" stroke="#000" style="stroke:#000;stroke-opacity:1" stroke-width="6" stroke-linecap="round"/></g></g><path opacity=".2" d="m187.28 380.14-23.83 14.3A15.45 15.45 0 0 0 156 407.7v28.6c0 5.45 2.83 10.49 7.45 13.26l23.84 14.3a14.97 14.97 0 0 0 15.43 0l23.83-14.3A15.45 15.45 0 0 0 234 436.3v-28.6c0-5.45-2.83-10.49-7.45-13.26l-23.83-14.3a14.97 14.97 0 0 0-15.44 0Z" fill="#000"/><path d="m188.67 387.75-19.56 11.7A12.63 12.63 0 0 0 163 410.3v23.4c0 4.46 2.32 8.58 6.11 10.85l19.56 11.7a12.31 12.31 0 0 0 12.66 0l19.56-11.7A12.63 12.63 0 0 0 227 433.7v-23.4c0-4.46-2.32-8.58-6.11-10.85l-19.56-11.7a12.31 12.31 0 0 0-12.66 0Z" fill="#000"/><path d="m188.67 387.75-19.56 11.7A12.63 12.63 0 0 0 163 410.3v23.4c0 4.46 2.32 8.58 6.11 10.85l19.56 11.7a12.31 12.31 0 0 0 12.66 0l19.56-11.7A12.63 12.63 0 0 0 227 433.7v-23.4c0-4.46-2.32-8.58-6.11-10.85l-19.56-11.7a12.31 12.31 0 0 0-12.66 0Z" stroke="#fff" style="stroke:#fff;stroke-opacity:1" stroke-width="5"/><path d="m188.67 387.75-19.56 11.7A12.63 12.63 0 0 0 163 410.3v23.4c0 4.46 2.32 8.58 6.11 10.85l19.56 11.7a12.31 12.31 0 0 0 12.66 0l19.56-11.7A12.63 12.63 0 0 0 227 433.7v-23.4c0-4.46-2.32-8.58-6.11-10.85l-19.56-11.7a12.31 12.31 0 0 0-12.66 0Z" stroke="url(#n)" stroke-width="5"/><path d="M184.5 414h21m-21 8h21m-21 8h21" stroke="#fff" style="stroke:#fff;stroke-opacity:1" stroke-width="4" stroke-linecap="round"/><path d="M67 650a19 19 0 0 0 0 38h55a19 19 0 0 0 0-38H67Zm4-20.5V585l70 22.5m-48 9H48.5M67 222a19 19 0 0 0 0 38h55a19 19 0 0 0 0-38H67Zm4-20.5V157l70 22.5m-48 9H48.5M323 194a19 19 0 0 0 0-38h-55a19 19 0 0 0 0 38h55Zm-4 20.5V259l-70-22.5m48-9h44.5M323 622a19 19 0 0 0 0-38h-55a19 19 0 0 0 0 38h55Zm-4 20.5V687l-70-22.5m48-9h44.5" stroke="#000" style="stroke:#000;stroke-opacity:1" stroke-width="15" stroke-linecap="round" stroke-linejoin="round"/></g><defs><clipPath id="a"><path fill="#fff" d="M0 0h390v844H0z"/></clipPath><clipPath id="b"><path fill="#fff" transform="rotate(-90 318.5 54.5)" d="M0 0h64v64H0z"/></clipPath><clipPath id="c"><path fill="#fff" transform="rotate(-90 185.5 -78.5)" d="M0 0h64v64H0z"/></clipPath><clipPath id="d"><path fill="#fff" transform="rotate(180 164 53.5)" d="M0 0h64v64H0z"/></clipPath><clipPath id="e"><path fill="#fff" transform="rotate(90 -172.5 298.5)" d="M0 0h64v64H0z"/></clipPath><clipPath id="f"><path fill="#fff" transform="rotate(90 -305.5 431.5)" d="M0 0h64v64H0z"/></clipPath><clipPath id="g"><path fill="#fff" transform="translate(62 737)" d="M0 0h64v64H0z"/></clipPath><clipPath id="h"><path fill="#fff" transform="rotate(-90 532.5 268.5)" d="M0 0h64v64H0z"/></clipPath><clipPath id="i"><path fill="#fff" transform="rotate(-90 399.5 135.5)" d="M0 0h64v64H0z"/></clipPath><clipPath id="j"><path fill="#fff" transform="rotate(180 164 267.5)" d="M0 0h64v64H0z"/></clipPath><clipPath id="k"><path fill="#fff" transform="rotate(90 41.5 84.5)" d="M0 0h64v64H0z"/></clipPath><clipPath id="l"><path fill="#fff" transform="rotate(90 -91.5 217.5)" d="M0 0h64v64H0z"/></clipPath><clipPath id="m"><path fill="#fff" transform="translate(62 309)" d="M0 0h64v64H0z"/></clipPath><linearGradient id="n" x1="177.08" y1="398.21" x2="198.36" y2="452.15" gradientUnits="userSpaceOnUse"><stop stop-color="#B9C0FF" style="stop-color:#b9c0ff;stop-color:color(display-p3 .7251 .7526 1);stop-opacity:1"/><stop offset=".19" stop-color="#A5D5FF" style="stop-color:#a5d5ff;stop-color:color(display-p3 .6458 .8368 1);stop-opacity:1"/><stop offset=".51" stop-color="#E1FFDC" style="stop-color:#e1ffdc;stop-color:color(display-p3 .8815 1 .8625);stop-opacity:1"/><stop offset=".77" stop-color="#DBFBFF" style="stop-color:#dbfbff;stop-color:color(display-p3 .8583 .9828 1);stop-opacity:1"/><stop offset=".87" stop-color="#EFE5F4" style="stop-color:#efe5f4;stop-color:color(display-p3 .9369 .8984 .9583);stop-opacity:1"/><stop offset="1" stop-color="#DFB9F1" style="stop-color:#dfb9f1;stop-color:color(display-p3 .8752 .7251 .9458);stop-opacity:1"/></linearGradient></defs></svg>