<svg width="390" height="844" fill="none" xmlns="http://www.w3.org/2000/svg"><g clip-path="url(#a)"><path fill="#000" d="M0 0h390v844H0z"/><rect x="201" y="624" width="416" height="189" rx="16" transform="rotate(-90 201 624)" fill="#F42C50" style="fill:#f42c50;fill:color(display-p3 .9554 .1724 .3123);fill-opacity:1"/><g opacity=".3" clip-path="url(#b)"><path d="M296 558v-18" stroke="#000" style="stroke:#000;stroke-opacity:1" stroke-width="6" stroke-linecap="round"/></g><g opacity=".3"><g clip-path="url(#c)"><path d="M296 292v-18" stroke="#000" style="stroke:#000;stroke-opacity:1" stroke-width="6" stroke-linecap="round"/></g><g clip-path="url(#d)"><path d="M305 283h-18" stroke="#000" style="stroke:#000;stroke-opacity:1" stroke-width="6" stroke-linecap="round"/></g></g><rect x="189" y="208" width="416" height="189" rx="16" transform="rotate(90 189 208)" fill="#EB9CFF" style="fill:#eb9cff;fill:color(display-p3 .9225 .6125 1);fill-opacity:1"/><g opacity=".3" clip-path="url(#e)"><path d="M94 274v18" stroke="#000" style="stroke:#000;stroke-opacity:1" stroke-width="6" stroke-linecap="round"/></g><g opacity=".3"><g clip-path="url(#f)"><path d="M94 540v18" stroke="#000" style="stroke:#000;stroke-opacity:1" stroke-width="6" stroke-linecap="round"/></g><g clip-path="url(#g)"><path d="M85 549h18" stroke="#000" style="stroke:#000;stroke-opacity:1" stroke-width="6" stroke-linecap="round"/></g></g><rect y="637.8" width="390" height="206.2" rx="16" fill="#33323D" style="fill:#33323d;fill:color(display-p3 .2 .1961 .2392);fill-opacity:1"/><path d="M0 654a16 16 0 0 1 16-16h358a16 16 0 0 1 16 16v18a8 8 0 0 1-8 8H8a8 8 0 0 1-8-8v-18Z" fill="#4550FF" style="fill:#4550ff;fill:color(display-p3 .2708 .3147 1);fill-opacity:1"/><path d="M374 635.5H16A18.5 18.5 0 0 0-2.5 654v18c0 5.8 4.7 10.5 10.5 10.5h374c5.8 0 10.5-4.7 10.5-10.5v-18a18.5 18.5 0 0 0-18.5-18.5Z" stroke="#000" stroke-opacity=".3" stroke-width="5"/><rect x="390" y="198" width="390" height="198.19" rx="16" transform="rotate(-180 390 198)" fill="#FFC600" style="fill:#ffc600;fill:color(display-p3 1 .7778 0);fill-opacity:1"/><g opacity=".3" clip-path="url(#h)"><path d="M328.69 98.12h-18" stroke="#000" style="stroke:#000;stroke-opacity:1" stroke-width="6" stroke-linecap="round"/></g><g opacity=".3"><g clip-path="url(#i)"><path d="M79.31 98.12h-18" stroke="#000" style="stroke:#000;stroke-opacity:1" stroke-width="6" stroke-linecap="round"/></g><g clip-path="url(#j)"><path d="M70.31 90.01v18" stroke="#000" style="stroke:#000;stroke-opacity:1" stroke-width="6" stroke-linecap="round"/></g></g><path opacity=".2" d="m187.28 588.14-23.83 14.3A15.45 15.45 0 0 0 156 615.7v28.6c0 5.45 2.83 10.49 7.45 13.26l23.84 14.3a14.97 14.97 0 0 0 15.43 0l23.83-14.3A15.45 15.45 0 0 0 234 644.3v-28.6c0-5.45-2.83-10.49-7.45-13.26l-23.83-14.3a14.97 14.97 0 0 0-15.44 0Z" fill="#000"/><path d="m188.67 595.75-19.56 11.7A12.63 12.63 0 0 0 163 618.3v23.4c0 4.46 2.32 8.58 6.11 10.85l19.56 11.7a12.31 12.31 0 0 0 12.66 0l19.56-11.7A12.63 12.63 0 0 0 227 641.7v-23.4c0-4.46-2.32-8.58-6.11-10.85l-19.56-11.7a12.31 12.31 0 0 0-12.66 0Z" fill="#000"/><path d="m188.67 595.75-19.56 11.7A12.63 12.63 0 0 0 163 618.3v23.4c0 4.46 2.32 8.58 6.11 10.85l19.56 11.7a12.31 12.31 0 0 0 12.66 0l19.56-11.7A12.63 12.63 0 0 0 227 641.7v-23.4c0-4.46-2.32-8.58-6.11-10.85l-19.56-11.7a12.31 12.31 0 0 0-12.66 0Z" stroke="#fff" style="stroke:#fff;stroke-opacity:1" stroke-width="5"/><path d="m188.67 595.75-19.56 11.7A12.63 12.63 0 0 0 163 618.3v23.4c0 4.46 2.32 8.58 6.11 10.85l19.56 11.7a12.31 12.31 0 0 0 12.66 0l19.56-11.7A12.63 12.63 0 0 0 227 641.7v-23.4c0-4.46-2.32-8.58-6.11-10.85l-19.56-11.7a12.31 12.31 0 0 0-12.66 0Z" stroke="url(#k)" stroke-width="5"/><path d="M184.5 622h21m-21 8h21m-21 8h21" stroke="#fff" style="stroke:#fff;stroke-opacity:1" stroke-width="4" stroke-linecap="round"/><rect x="49" y="712" width="64" height="50" rx="10" fill="#4550FF" style="fill:#4550ff;fill:color(display-p3 .2708 .3147 1);fill-opacity:1"/><rect x="48.5" y="711.5" width="65" height="51" rx="10.5" stroke="#000" stroke-opacity=".3"/><path d="M272.15 784c0-.73.57-1.3 1.3-1.3h3.24a4.53 4.53 0 0 1 4.55 4.54v1.52a4.53 4.53 0 0 1-4.55 4.54h-1.94v6.27c0 .73-.57 1.3-1.3 1.3-.73 0-1.3-.57-1.3-1.3V784Zm6.49 3.24c0-1.08-.87-1.94-1.95-1.94h-1.94v5.4h1.94c1.08 0 1.95-.86 1.95-1.94v-1.52Zm13.25 11.98c.2.73-.21 1.4-.89 1.6-.73.18-1.4-.23-1.6-.9-.07-.22-.13-.49-.21-.78-.13-.52-.35-1.22-.57-2.06h-4.6l-.56 2.05c-.08.3-.13.57-.22.79a1.28 1.28 0 0 1-1.59.9 1.28 1.28 0 0 1-.9-1.6l4.33-15.68c.14-.57.62-.95 1.25-.95.62 0 1.1.38 1.24.95l4.32 15.68Zm-4-4.73c-.51-1.87-1.05-3.95-1.56-5.7-.52 1.75-1.06 3.83-1.57 5.7h3.13Zm14.75-5.73c0 1.75-.95 3.27-2.43 4.02l2.35 6.33c.3.67-.08 1.43-.76 1.67a1.32 1.32 0 0 1-1.67-.75l-2.52-6.73h-1.46v6.27c0 .73-.56 1.3-1.3 1.3a1.3 1.3 0 0 1-1.3-1.3V784c0-.73.58-1.3 1.3-1.3h3.25a4.53 4.53 0 0 1 4.54 4.54v1.52Zm-6.49 1.94h1.95c1.08 0 1.95-.86 1.95-1.94v-1.52c0-1.08-.87-1.94-1.95-1.94h-1.95v5.4Zm15.63-8c.73 0 1.3.57 1.3 1.3 0 .73-.57 1.3-1.3 1.3h-2.21v14.27c0 .73-.57 1.3-1.3 1.3-.73 0-1.3-.57-1.3-1.3V785.3h-2.22c-.73 0-1.3-.57-1.3-1.3 0-.73.57-1.3 1.3-1.3h7.03Zm12.19 18.14a1.27 1.27 0 0 1-1.46-.7c-.54-1.17-1.11-2.33-1.7-3.55-1-2.05-2.3-4.67-3.41-7.02v10c0 .73-.57 1.3-1.3 1.3-.73 0-1.3-.57-1.3-1.3v-15.68c0-.62.38-1.13 1-1.27a1.3 1.3 0 0 1 1.46.7c.55 1.17 1.11 2.33 1.7 3.54 1 2.06 2.25 4.68 3.41 7.03v-10c0-.73.57-1.3 1.3-1.3.73 0 1.3.57 1.3 1.3v15.68a1.3 1.3 0 0 1-1 1.27Zm3.82-16.84c0-.73.57-1.3 1.3-1.3h5.4c.73 0 1.3.57 1.3 1.3 0 .73-.57 1.3-1.3 1.3h-4.1v4.86h3.56c.73 0 1.3.57 1.3 1.3 0 .73-.57 1.3-1.3 1.3h-3.56v5.4h4.1c.73 0 1.3.57 1.3 1.3 0 .73-.57 1.3-1.3 1.3h-5.4c-.73 0-1.3-.57-1.3-1.3V784Zm19.03 4.76c0 1.75-.94 3.27-2.43 4.02l2.35 6.33c.3.67-.08 1.43-.75 1.67a1.32 1.32 0 0 1-1.68-.75l-2.51-6.73h-1.46v6.27c0 .73-.57 1.3-1.3 1.3-.73 0-1.3-.57-1.3-1.3V784c0-.73.57-1.3 1.3-1.3h3.24a4.53 4.53 0 0 1 4.54 4.54v1.52Zm-6.48 1.94h1.94c1.08 0 1.95-.86 1.95-1.94v-1.52c0-1.08-.87-1.94-1.95-1.94h-1.94v5.4Zm13.48 7.14c.52-.35.73-.87.81-1.49a2.02 2.02 0 0 0-.56-1.62l-4.33-4.43a4.4 4.4 0 0 1-1.27-3.52 4.5 4.5 0 0 1 1.79-3.27 4.65 4.65 0 0 1 3.64-.83 4.56 4.56 0 0 1 3.03 2.19c.35.62.14 1.37-.49 1.78-.62.35-1.4.13-1.75-.49-.3-.48-.73-.8-1.3-.94-.57-.11-1.1.02-1.57.37a1.8 1.8 0 0 0-.75 1.41 1.8 1.8 0 0 0 .54 1.49l4.3 4.43a4.67 4.67 0 1 1-7.38 5.62c-.4-.62-.17-1.43.46-1.78.62-.36 1.37-.14 1.78.48a2.04 2.04 0 0 0 3.05.6ZM188.13 799c.3.65.03 1.43-.62 1.73-.65.32-1.4.05-1.73-.6l-3.54-7.37-1.03 1.4v5.4c0 .74-.57 1.3-1.3 1.3-.73 0-1.3-.56-1.3-1.3V783.9c0-.73.57-1.3 1.3-1.3.73 0 1.3.57 1.3 1.3v5.81l4.68-6.57c.43-.56 1.24-.7 1.8-.3.63.41.74 1.2.3 1.82l-4.05 5.7 4.19 8.65Zm3.16 1.87c-.73 0-1.3-.57-1.3-1.3v-15.68c0-.73.57-1.3 1.3-1.3.73 0 1.3.57 1.3 1.3v15.68c0 .73-.57 1.3-1.3 1.3Zm5.41-.11c-.73 0-1.3-.57-1.3-1.3v-15.57c0-.73.57-1.3 1.3-1.3.73 0 1.3.57 1.3 1.3v14.27h4.1c.74 0 1.3.57 1.3 1.3 0 .73-.56 1.3-1.3 1.3h-5.4Zm9.4 0c-.73 0-1.3-.57-1.3-1.3v-15.57c0-.73.57-1.3 1.3-1.3.73 0 1.3.57 1.3 1.3v14.27h4.1c.73 0 1.3.57 1.3 1.3 0 .73-.57 1.3-1.3 1.3h-5.4ZM34.64 788.22c0 1.27-.54 2.4-1.38 3.24a4.58 4.58 0 0 1 1.38 3.24v1.52a4.55 4.55 0 0 1-4.54 4.54h-3.24c-.73 0-1.3-.57-1.3-1.3V784c0-.73.57-1.3 1.3-1.3h3.24a4.55 4.55 0 0 1 4.54 4.54v.98Zm-2.6 6.48c0-1.08-.86-1.94-1.94-1.94h-1.95v5.4h1.95c1.08 0 1.95-.86 1.95-1.94v-1.52Zm-1.94-4.54c1.08 0 1.95-.86 1.95-1.94v-.98c0-1.08-.87-1.94-1.95-1.94h-1.95v4.86h1.95Zm16.76 9.06a1.3 1.3 0 1 1-2.49.7c-.08-.22-.14-.49-.22-.78-.13-.52-.35-1.22-.56-2.06h-4.6l-.57 2.05c-.08.3-.13.57-.21.79a1.28 1.28 0 0 1-1.6.9 1.28 1.28 0 0 1-.89-1.6l4.33-15.68c.13-.57.62-.95 1.24-.95s1.1.38 1.24.95l4.33 15.68Zm-4-4.73c-.52-1.87-1.06-3.95-1.57-5.7-.52 1.75-1.06 3.83-1.57 5.7h3.14Zm8.69 6.21a4.5 4.5 0 0 1-3.35-4.38v-9.19a4.52 4.52 0 0 1 3.35-4.37c2.03-.54 4.05.3 5.1 2.1.41.63.17 1.38-.45 1.79-.62.35-1.38.13-1.79-.49a1.91 1.91 0 0 0-2.19-.89c-.83.22-1.43 1-1.43 1.87v9.18c0 .9.6 1.65 1.43 1.9a2 2 0 0 0 2.2-.92c.4-.62 1.16-.84 1.78-.49.62.4.86 1.16.46 1.78a4.48 4.48 0 0 1-5.11 2.11Zm16.88-1.7c.3.65.03 1.43-.62 1.73-.65.32-1.4.05-1.73-.6l-3.54-7.37-1.02 1.4v5.4c0 .74-.57 1.3-1.3 1.3-.73 0-1.3-.56-1.3-1.3V783.9c0-.73.57-1.3 1.3-1.3.73 0 1.3.57 1.3 1.3v5.81l4.67-6.57c.43-.56 1.24-.7 1.81-.3.62.41.73 1.2.3 1.82l-4.05 5.7 4.18 8.65Zm9.33-8.3c.73 0 1.3.57 1.3 1.3v4.32a4.53 4.53 0 1 1-9.09 0v-9.19a4.48 4.48 0 0 1 3.38-4.37c1.97-.52 4.08.3 5.1 2.1.36.63.14 1.38-.48 1.79-.62.35-1.4.13-1.75-.49a1.94 1.94 0 0 0-2.2-.89c-.86.22-1.45 1-1.45 1.87v9.18a1.95 1.95 0 1 0 3.89 0v-3.02h-1.4c-.74 0-1.3-.57-1.3-1.3 0-.73.56-1.3 1.3-1.3h2.7Zm12.76-1.94c0 1.75-.95 3.27-2.44 4.02l2.35 6.33c.3.67-.08 1.43-.75 1.67a1.32 1.32 0 0 1-1.68-.75l-2.51-6.73h-1.46v6.27c0 .73-.57 1.3-1.3 1.3-.73 0-1.3-.57-1.3-1.3V784c0-.73.57-1.3 1.3-1.3h3.25a4.53 4.53 0 0 1 4.54 4.54v1.52Zm-6.49 1.94h1.95c1.08 0 1.94-.86 1.94-1.94v-1.52c0-1.08-.86-1.94-1.94-1.94h-1.95v5.4Zm12.86 10.16a4.53 4.53 0 0 1-4.54-4.54v-9.19a4.53 4.53 0 1 1 9.09 0v9.2a4.53 4.53 0 0 1-4.55 4.53Zm0-15.67c-1.08 0-1.94.86-1.94 1.94v9.2c0 1.07.86 1.94 1.94 1.94 1.09 0 1.95-.87 1.95-1.95v-9.19c0-1.08-.86-1.94-1.95-1.94Zm9.41 11.13a1.95 1.95 0 1 0 3.89 0V783.9c0-.73.57-1.3 1.3-1.3.73 0 1.3.57 1.3 1.3v12.43a4.55 4.55 0 0 1-9.08 0V783.9c0-.73.56-1.3 1.3-1.3.72 0 1.3.57 1.3 1.3v12.43Zm18.24 4.52a1.28 1.28 0 0 1-1.46-.7c-.54-1.17-1.1-2.33-1.7-3.55-1-2.05-2.3-4.67-3.4-7.02v10c0 .73-.58 1.3-1.3 1.3-.74 0-1.3-.57-1.3-1.3v-15.68c0-.62.38-1.13 1-1.27.62-.13 1.16.16 1.46.7.54 1.17 1.1 2.33 1.7 3.54 1 2.06 2.24 4.68 3.4 7.03v-10c0-.73.57-1.3 1.3-1.3.73 0 1.3.57 1.3 1.3v15.68a1.3 1.3 0 0 1-1 1.27Zm8.36-18.14a4.53 4.53 0 0 1 4.54 4.54v8.98a4.53 4.53 0 0 1-4.54 4.54h-3.24c-.73 0-1.3-.57-1.3-1.3V784c0-.73.57-1.3 1.3-1.3h3.24Zm1.95 4.54c0-1.08-.87-1.94-1.95-1.94h-1.94v12.86h1.94c1.08 0 1.95-.86 1.95-1.94v-8.98Z" fill="#fff"/><circle cx="195" cy="737" r="25" fill="#1D1B24" style="fill:#1d1b24;fill:color(display-p3 .1144 .1078 .1407);fill-opacity:1"/><path fill-rule="evenodd" clip-rule="evenodd" d="M195 720.75c-8.75 0-15 6.34-15 14.16 0 5 2.06 9.37 6.43 11.9.16 3.14 1.51 5.6 3.17 5.6 1.14 0 2.14-1.17 2.7-2.93.56 1.76 1.56 2.93 2.7 2.93 1.14 0 2.14-1.17 2.7-2.93.56 1.76 1.56 2.93 2.7 2.93 1.65 0 3.01-2.46 3.17-5.6 4.37-2.53 6.43-6.9 6.43-11.9 0-7.82-6.25-14.16-15-14.16Zm-5.94 20.63a4.06 4.06 0 0 0 4.06-4.07c0-3.11-1.81-4.06-4.06-4.06a4.06 4.06 0 1 0 0 8.13Zm7.81-4.07a4.06 4.06 0 1 0 4.07-4.06c-2.25 0-4.06 1.03-4.06 4.06Z" fill="#fff"/><path d="M192.79 744.85c-1.07-1.02 1.1-4.73 2.21-4.73 1.1 0 3.28 3.71 2.21 4.73-.65.62-1.66 0-2.21 0s-1.56.62-2.21 0Z" fill="#1D1B24" style="fill:#1d1b24;fill:color(display-p3 .1137 .1059 .1412);fill-opacity:1"/><path d="M323 402a19 19 0 0 0 0-38h-55a19 19 0 0 0 0 38h55Zm-4 20.5V467l-70-22.5m48-9h44.5M182 72a19 19 0 0 0-38 0v55a19 19 0 0 0 38 0V72Zm20.5 4H247l-22.5 70m-9-48V53.5M67 430a19 19 0 0 0 0 38h55a19 19 0 0 0 0-38H67Zm4-20.5V365l70 22.5m-48 9H48.5" stroke="#000" style="stroke:#000;stroke-opacity:1" stroke-width="15" stroke-linecap="round" stroke-linejoin="round"/><mask id="l" style="mask-type:alpha" maskUnits="userSpaceOnUse" x="289" y="712" width="50" height="50"><circle cx="314" cy="737" r="25" fill="#1D1B24" style="fill:#1d1b24;fill:color(display-p3 .1144 .1078 .1407);fill-opacity:1"/></mask><g mask="url(#l)"><circle cx="314" cy="737" r="25" fill="#1D1B24" style="fill:#1d1b24;fill:color(display-p3 .1144 .1078 .1407);fill-opacity:1"/><circle cx="324.63" cy="733.88" r="8.13" fill="#A2A5B2" style="fill:#a2a5b2;fill:color(display-p3 .6349 .6488 .698);fill-opacity:1"/><rect x="312.75" y="744.5" width="23.75" height="27.5" rx="10" fill="#A2A5B2" style="fill:#a2a5b2;fill:color(display-p3 .6349 .6488 .698);fill-opacity:1"/><circle cx="305.25" cy="730.75" r="8.75" fill="#fff"/><rect x="292.75" y="742" width="25" height="28.75" rx="10" fill="#fff"/></g></g><defs><clipPath id="a"><path fill="#fff" d="M0 0h390v844H0z"/></clipPath><clipPath id="b"><path fill="#fff" transform="rotate(-90 422.5 158.5)" d="M0 0h64v64H0z"/></clipPath><clipPath id="c"><path fill="#fff" transform="rotate(-90 289.5 25.5)" d="M0 0h64v64H0z"/></clipPath><clipPath id="d"><path fill="#fff" transform="rotate(180 164 157.5)" d="M0 0h64v64H0z"/></clipPath><clipPath id="e"><path fill="#fff" transform="rotate(90 -62.5 188.5)" d="M0 0h64v64H0z"/></clipPath><clipPath id="f"><path fill="#fff" transform="rotate(90 -195.5 321.5)" d="M0 0h64v64H0z"/></clipPath><clipPath id="g"><path fill="#fff" transform="translate(62 517)" d="M0 0h64v64H0z"/></clipPath><clipPath id="h"><path fill="#fff" transform="rotate(-180 174.84 66.06)" d="M0 0h60v67.11H0z"/></clipPath><clipPath id="i"><path fill="#fff" transform="rotate(-180 50.16 66.06)" d="M0 0h60v67.11H0z"/></clipPath><clipPath id="j"><path fill="#fff" transform="rotate(90 17.65 82.66)" d="M0 0h67.11v60H0z"/></clipPath><linearGradient id="k" x1="177.08" y1="606.21" x2="198.36" y2="660.15" gradientUnits="userSpaceOnUse"><stop stop-color="#B9C0FF" style="stop-color:#b9c0ff;stop-color:color(display-p3 .7251 .7526 1);stop-opacity:1"/><stop offset=".19" stop-color="#A5D5FF" style="stop-color:#a5d5ff;stop-color:color(display-p3 .6458 .8368 1);stop-opacity:1"/><stop offset=".51" stop-color="#E1FFDC" style="stop-color:#e1ffdc;stop-color:color(display-p3 .8815 1 .8625);stop-opacity:1"/><stop offset=".77" stop-color="#DBFBFF" style="stop-color:#dbfbff;stop-color:color(display-p3 .8583 .9828 1);stop-opacity:1"/><stop offset=".87" stop-color="#EFE5F4" style="stop-color:#efe5f4;stop-color:color(display-p3 .9369 .8984 .9583);stop-opacity:1"/><stop offset="1" stop-color="#DFB9F1" style="stop-color:#dfb9f1;stop-color:color(display-p3 .8752 .7251 .9458);stop-opacity:1"/></linearGradient></defs></svg>