<svg width="112" height="112" fill="none" xmlns="http://www.w3.org/2000/svg"><path d="M45.9 14.7c3.8-2.76 5.71-4.15 7.8-4.68 1.84-.48 3.77-.48 5.6 0 2.09.53 4 1.92 7.8 4.69L92.98 33.5c3.81 2.77 5.72 4.15 6.87 5.97a11 11 0 0 1 1.74 5.33c.13 2.15-.6 4.4-2.05 8.87l-9.88 30.4c-1.46 4.49-2.19 6.73-3.56 8.39a11 11 0 0 1-4.54 3.3c-2 .79-4.35.79-9.06.79H40.52c-4.72 0-7.07 0-9.07-.8a11 11 0 0 1-4.54-3.3c-1.37-1.65-2.1-3.9-3.56-8.37l-9.87-30.4c-1.46-4.49-2.19-6.73-2.05-8.88.12-1.9.71-3.73 1.73-5.33 1.15-1.82 3.06-3.2 6.87-5.97z" stroke="#fff" stroke-width="12" stroke-linejoin="round"/><path d="M55.87 33.57c.7 0 1.3.34 1.75.76q.66.62 1.15 1.5a28 28 0 0 1 1.79 4c.55 1.45 1.08 2.91 1.59 4.08a9 9 0 0 0 1.23 2.14c.14.11 1.1.43 2.33.57 1.22.14 2.73.21 4.21.32a25 25 0 0 1 4.2.55 6 6 0 0 1 1.72.67c.51.32 1 .8 1.23 1.5.21.7.08 1.4-.16 1.98q-.38.84-1.01 1.59a27 27 0 0 1-3.08 3.02c-1.15 1-2.33 1.98-3.24 2.85-.9.86-1.5 1.7-1.56 1.88-.05.18-.04 1.24.2 2.5.25 1.25.65 2.77 1.02 4.28.36 1.5.7 3 .8 4.34q.1 1-.08 1.91a2.8 2.8 0 0 1-.99 1.7c-.57.42-1.25.51-1.84.45a6 6 0 0 1-1.77-.5 26 26 0 0 1-3.7-2.15c-1.26-.83-2.51-1.69-3.58-2.33a8 8 0 0 0-2.2-.97 8 8 0 0 0-2.21.97c-1.07.64-2.33 1.5-3.59 2.33a26 26 0 0 1-3.7 2.14 6 6 0 0 1-1.76.51 2.6 2.6 0 0 1-1.85-.46 2.8 2.8 0 0 1-.99-1.69 7 7 0 0 1-.07-1.91c.1-1.34.43-2.83.8-4.34.36-1.51.76-3.03 1-4.28.26-1.26.27-2.32.21-2.5a8 8 0 0 0-1.56-1.88c-.9-.87-2.09-1.85-3.23-2.85s-2.25-2-3.09-3.02a7 7 0 0 1-1-1.6 3 3 0 0 1-.16-1.97 2.7 2.7 0 0 1 1.23-1.5 6 6 0 0 1 1.72-.67c1.24-.31 2.7-.45 4.2-.55 1.48-.1 2.98-.18 4.2-.32a8 8 0 0 0 2.33-.57c.15-.1.73-.97 1.24-2.14.5-1.17 1.04-2.63 1.59-4.08a28 28 0 0 1 1.79-4 6 6 0 0 1 1.14-1.5 2.6 2.6 0 0 1 1.75-.76" fill="#fff"/></svg>