<svg width="200" height="200" fill="none" xmlns="http://www.w3.org/2000/svg"><path d="M120.45 38c-46.05 0 4.09 40.21-19.95 61.08a8.86 8.86 0 0 1-3.26 1.59c-17.88 4.72-36.97-21.7-37.56 8.2 9.72-14.38 14.16-.34 30.13-1.22-7.76 10.12-3.96 27.08-16.9 29.84-23.63 5.04-39.48-23.09-39.48-41.08.01-34.01 25.04-50.96 50.5-54.9 1.2-.2 1.02-1.92-.2-1.87C49.59 41.25 24 70.04 24 100.97 24 141.08 45.96 163 79.55 163c46.13 0-4.24-40.34 20.06-61.18a9 9 0 0 1 3.36-1.54c17.82-4.44 36.76 21.63 37.33-8.15-9.72 14.38-14.15.34-30.13 1.22 7.75-10.12 3.95-27.08 16.9-29.84 23.62-5.04 39.48 23.09 39.48 41.08 0 34.01-25.02 50.96-50.48 54.9-1.2.2-1.02 1.92.2 1.87 34.14-1.61 59.73-30.4 59.73-61.33C176 59.92 154.04 38 120.45 38Z" fill="#fff" stroke="#fff" style="fill:#fff;stroke:#fff;stroke-opacity:1" stroke-width="6" stroke-linejoin="round"/></svg>