<svg width="50" height="50" fill="none" xmlns="http://www.w3.org/2000/svg"><path d="M34.2 8.74a5 5 0 0 1 7.07 7.07L20.04 37.02a5 5 0 1 1-7.07-7.07L34.19 8.74Z" stroke="#fff" stroke-width="5" stroke-linejoin="round"/><path d="M34.2 8.74a5 5 0 0 1 7.07 7.07l-5.66 5.65a5 5 0 0 1-7.07-7.07l5.65-5.65Z" fill="#fff" stroke="#fff" stroke-width="5" stroke-linejoin="round"/><path d="M11.56 35.6a2 2 0 0 1 2.83 2.83l-2.83 2.83a2 2 0 0 1-2.83-2.83l2.83-2.82Z" stroke="#fff" stroke-width="5" stroke-linejoin="round"/><rect x="25" y="12.27" width="18" height="4" rx="2" transform="rotate(45 25 12.27)" fill="#fff" stroke="#fff" stroke-width="5" stroke-linejoin="round"/><path d="M26.41 30.66H12.27l-1.41 1.41 7.07 7.07 8.48-8.48Z" fill="#fff"/></svg>