<svg width="200" height="200" fill="none" xmlns="http://www.w3.org/2000/svg"><path fill-rule="evenodd" clip-rule="evenodd" d="M158.45 127.09a11 11 0 0 1-5.52 9.51l-40.8 23.44a1.93 1.93 0 0 1-2.9-1.66v-49.95a5.7 5.7 0 0 1 2.86-4.92l43.47-24.97a1.93 1.93 0 0 1 2.89 1.66v46.89Zm-61.3-39.5L53.68 62.62a1.91 1.91 0 0 1 0-3.33l40.8-23.44a11.08 11.08 0 0 1 11.04 0l40.8 23.44a1.91 1.91 0 0 1 0 3.33l-43.47 24.97a5.73 5.73 0 0 1-5.7 0Zm-6.39 70.8c0 1.47-1.6 2.4-2.9 1.66L47.08 136.6a11 11 0 0 1-5.52-9.51V80.2c0-1.48 1.61-2.4 2.9-1.66l43.46 24.97a5.67 5.67 0 0 1 2.85 4.92v49.95Zm71.4-111.22-47.4-27.25a29.72 29.72 0 0 0-29.52 0l-47.4 27.25A29.43 29.43 0 0 0 23.07 72.6v54.49c0 10.46 5.65 20.2 14.75 25.44l47.41 27.24a29.61 29.61 0 0 0 14.76 3.92c5.1 0 10.2-1.3 14.75-3.92l47.42-27.25a29.43 29.43 0 0 0 14.75-25.43V72.6c0-10.46-5.65-20.2-14.75-25.43Z" fill="#fff"/></svg>