<svg width="86" height="86" fill="none" xmlns="http://www.w3.org/2000/svg"><path d="M53.81 18.25c2.31-2.3 3.47-3.46 4.8-3.91a6 6 0 0 1 3.85 0c1.33.45 2.48 1.6 4.79 3.91 2.3 2.31 3.46 3.47 3.91 4.79a6 6 0 0 1 0 3.86c-.45 1.32-1.6 2.48-3.91 4.79l-2.05 2.05c-.4.4-.6.6-.82.67a1 1 0 0 1-.62 0c-.23-.08-.43-.28-.82-.67L51.76 22.56c-.4-.4-.59-.59-.66-.82a1 1 0 0 1 0-.62c.07-.22.27-.42.66-.82l2.05-2.05ZM22.37 49.7c-.9.9-1.36 1.35-1.72 1.87a7 7 0 0 0-.78 1.47c-.22.59-.34 1.21-.58 2.47l-1.65 8.6c-.3 1.56-.45 2.33-.21 2.89a2 2 0 0 0 1.07 1.08c.56.23 1.33.08 2.88-.22L30 66.21c1.26-.24 1.88-.36 2.47-.58a7 7 0 0 0 1.47-.78c.52-.36.97-.81 1.87-1.72l24.02-24.01c.4-.4.59-.6.66-.82a1 1 0 0 0 0-.62c-.07-.23-.27-.43-.66-.82L48.64 25.69c-.4-.4-.59-.6-.82-.67a1 1 0 0 0-.62 0c-.23.07-.42.27-.82.67l-24.01 24Z" fill="#fff"/></svg>