<svg width="804" height="121" fill="none" xmlns="http://www.w3.org/2000/svg"><path d="M19 33.5 38 14v92.5M416 27V14h38.5l-23 92.5M256.5 84H212l22.5-70m9 48v44.5M314.53 14h-31.5v46.94m0 0V61m0-.06a19.5 19.5 0 0 1 36.5 9.56V87a19.5 19.5 0 0 1-36.24 10m-.26-36.06L283 61M149 97a19.5 19.5 0 0 0 36.24-10v-8.5a19.5 19.5 0 0 0-19.5-19.5 19.5 19.5 0 0 0 19.5-19.5V34A19.5 19.5 0 0 0 149 24m-67 0a19.49 19.49 0 0 1 36.24 10c0 16.5-36.24 72.5-36.24 72.5h36.24M350 70V33.5a19.5 19.5 0 0 1 36.24-10M350 70a19 19 0 0 1 38 0v18a19 19 0 0 1-38 0zm238-21v38.5a19.5 19.5 0 0 1-36.24 10M588 49V33a19 19 0 0 0-38 0v16a19 19 0 0 0 38 0m-85 10a19 19 0 0 0-19 19v10a19 19 0 0 0 38 0V78a19 19 0 0 0-19-19m0 0a19 19 0 0 0 19-19v-7a19 19 0 0 0-38 0v7a19 19 0 0 0 19 19m182 3h37m30 0h37m-18.5 18.5v-37M618 88a19 19 0 0 0 38 0V33a19 19 0 0 0-38 0z" stroke="#fff" stroke-width="15" stroke-linecap="round" stroke-linejoin="round"/></svg>