<svg width="50" height="50" fill="none" xmlns="http://www.w3.org/2000/svg"><path d="M23.9 11.54c3.77-3.77 9.8-3.71 14.54 1.03 4.73 4.73 4.79 10.76 1.02 14.52-5.05 5.06-15.6 7.68-19.4 3.86-3.83-3.82-1.2-14.36 3.85-19.41Z" stroke="#fff" stroke-width="5" stroke-linecap="round"/><path d="m18.69 28.17-3.97 3.97c-2.2-1.11-4.9-.45-5.78 1.95-.88 2.43 1.05 4.36 3.22 4.75.39 2.17 2.32 4.1 4.76 3.22 2.39-.87 3.06-3.58 1.94-5.78l3.97-3.97" stroke="#fff" stroke-width="4" stroke-linecap="round" stroke-linejoin="round"/><circle cx="28.54" cy="15.39" r="2" transform="rotate(45 28.54 15.4)" fill="#fff"/><circle cx="33.48" cy="15.39" r="1.5" transform="rotate(45 33.48 15.4)" fill="#fff"/></svg>