<svg width="130" height="130" fill="none" xmlns="http://www.w3.org/2000/svg"><path fill-rule="evenodd" clip-rule="evenodd" d="M64.9 15A50.1 50.1 0 0 1 115 65a50.1 50.1 0 0 1-50.1 50 50.3 50.3 0 0 1-46.96-32.58 6.02 6.02 0 0 1 11.27-4.18A38.23 38.23 0 0 0 64.92 103a38.07 38.07 0 0 0 38.06-38c0-20.95-17.07-38-38.06-38a38.25 38.25 0 0 0-31 15.98l-.3.42 8.56-1.08a6 6 0 0 1 1.74 11.88l-.22.02-19.73 2.52a6.01 6.01 0 0 1-6.48-4.1l-.08-.24-6.18-22.09a6 6 0 0 1 11.52-3.44l.07.21 2.16 7.74A50.35 50.35 0 0 1 64.91 15Zm1.38 24.67a6 6 0 0 1 6.01 5.78v16.91l12.13 11.06a6 6 0 0 1-4.06 10.43 6 6 0 0 1-3.84-1.38l-.22-.19-14.08-12.85a6 6 0 0 1-1.94-4.15l-.01-.28V45.67a6 6 0 0 1 6.01-6Z" fill="#fff"/></svg>