<svg width="40" height="40" fill="none" xmlns="http://www.w3.org/2000/svg"><path fill-rule="evenodd" clip-rule="evenodd" d="M8 18.33C8 12.07 13 7 20 7s12 5.07 12 11.33c0 4-1.65 7.5-5.14 9.51-.13 2.52-1.22 4.49-2.54 4.49-.91 0-1.71-.94-2.16-2.35-.45 1.4-1.25 2.35-2.16 2.35-.91 0-1.71-.94-2.16-2.35-.45 1.4-1.25 2.35-2.16 2.35-1.32 0-2.41-1.97-2.54-4.49C9.65 25.83 8 22.32 8 18.33Zm10.5 1.92A3.25 3.25 0 1 1 15.25 17c1.8 0 3.25.76 3.25 3.25Zm6.25 3.25a3.25 3.25 0 0 1-3.25-3.25c0-2.42 1.46-3.25 3.25-3.25a3.25 3.25 0 0 1 0 6.5Zm-4.75-1c-.88 0-2.63 2.97-1.77 3.78.36.34.86.2 1.29.1.18-.05.35-.1.48-.1s.3.05.48.1c.43.1.93.24 1.29-.1.86-.81-.89-3.78-1.77-3.78Z" fill="#fff"/></svg>