<svg width="40" height="40" fill="none" xmlns="http://www.w3.org/2000/svg"><path fill-rule="evenodd" clip-rule="evenodd" d="M2 18C2 8.6 9.5 1 20 1s18 7.6 18 17c0 5.98-2.48 11.24-7.72 14.27-.19 3.77-1.82 6.72-3.8 6.72-1.37 0-2.57-1.4-3.24-3.52C22.57 37.58 21.37 39 20 39s-2.57-1.4-3.24-3.52c-.68 2.11-1.87 3.52-3.24 3.52-1.99 0-3.62-2.95-3.8-6.72C4.47 29.24 2 23.98 2 17.99Zm15.4 9.15 1.24-1.98c.45-.72.68-1.08.97-1.2a1 1 0 0 1 .78 0c.3.12.52.48.97 1.2l1.24 1.98c.24.39.36.58.4.7a1.5 1.5 0 0 1-1.56 2.06 6.56 6.56 0 0 1-.94-.26 2 2 0 0 0-1.15.05c-.44.13-.66.2-.79.2a1.5 1.5 0 0 1-1.57-2.05c.05-.12.17-.31.41-.7ZM17 20.5a4.5 4.5 0 1 1-9 0 4.5 4.5 0 0 1 9 0ZM27.5 25a4.5 4.5 0 1 0 0-9 4.5 4.5 0 0 0 0 9Z" fill="#fff"/></svg>