<svg width="60" height="40" fill="none" xmlns="http://www.w3.org/2000/svg"><g clip-path="url(#a)" fill="#fff"><path d="M24.95 40a3.04 3.04 0 0 1-2.67-4.46c7.94-15.1 29.42-15.1 37.36 0A3.04 3.04 0 0 1 56.98 40H24.95Z"/><path d="M51.09 10.59c0 5.85-4.54 10.59-10.13 10.59-5.6 0-10.12-4.74-10.12-10.6C30.84 4.75 35.37 0 40.96 0c5.6 0 10.13 4.74 10.13 10.59ZM25.07 28.08a23.82 23.82 0 0 0-4.83 6.37c-1 1.9-.74 4 .32 5.55H2.66c-2 0-3.28-2.14-2.35-3.92a18.53 18.53 0 0 1 24.76-8Zm-8.34-4.62c4.92 0 8.9-4.17 8.9-9.3 0-5.15-3.98-9.31-8.9-9.31-4.91 0-8.9 4.16-8.9 9.3 0 5.14 3.99 9.3 8.9 9.3Z"/></g><defs><clipPath id="a"><path fill="#fff" d="M0 0h60v40H0z"/></clipPath></defs></svg>