<svg xmlns="http://www.w3.org/2000/svg" viewBox="0 0 960 1024"><path fill="#fff" d="m737.8 655.87 25.42-156.79-126.4 92.8a409.73 409.73 0 0 0-98.44-29.02l-58.82-144.12-58.14 142.55a403.39 403.39 0 0 0-104.65 29.02l-124.24-91.23 24.91 153.8c-58.44 51.99-96.02 122.28-96.02 203.08 0 0 5.16 29.7 21.76 29.7 28.42 0 81.98-174.1 329.64-174.1 247.79 0 309.68 175.76 338.11 175.76 15.75 0 23.41-30.15 23.41-30.15 0-79.61-37.97-149.23-96.54-201.3zm217.1.46s-3.39 45.85-27.32 45.85c-26.02 0-15.23-22.51-27.37-53.8-63.32-164-217.7-273.16-423.57-273.16S116.23 485.5 55.62 648.15c-14.72 39.47-2.85 53.41-27.99 53.41-25.06 0-26.79-45.23-26.79-45.23 0-263.4 170.76-476.98 477.07-476.98 306.25 0 476.98 213.58 476.98 476.98z"/></svg>