<svg width="200" height="200" fill="none" xmlns="http://www.w3.org/2000/svg"><path d="M88.4 89.15C91.04 89.15 94.14 25 100 25c5.86 0 8.96 64.15 11.6 64.15 2.63 0 7.9-51.06 10.54-49.31 2.64 1.74 9.49 52.37 12.65 53.24 3.16.87 8.44-37.1 11.07-35.79 2.28 1.14 4.56 34.27 5.13 43.2.1 1.35-.82 2.6-2.26 3.27C96.04 128.13 109.06 176 100 176c-9.05 0 3.96-47.87-48.73-72.24-1.44-.67-2.35-1.92-2.26-3.28.57-8.92 2.85-42.05 5.13-43.19 2.63-1.3 7.9 36.66 11.07 35.8 3.16-.88 10.01-51.5 12.65-53.25 2.64-1.75 7.9 49.31 10.54 49.31Z" fill="#fff" stroke="#fff" style="fill:#fff;stroke:#fff;stroke-opacity:1" stroke-width="4" stroke-linecap="round" stroke-linejoin="round"/></svg>