<svg width="16" height="19" fill="none" xmlns="http://www.w3.org/2000/svg"><path fill-rule="evenodd" clip-rule="evenodd" d="M8 0a5.8 5.8 0 0 1 5.82 5.75c0 1.48-.56 2.82-1.48 3.83C14.8 10.9 16 13.26 16 15.13c0 .18 0 .47-.03.74a3.6 3.6 0 0 1-3.14 3.1c-.26.03-.55.03-.74.03H3.91c-.2 0-.48 0-.74-.03a3.6 3.6 0 0 1-3.14-3.1C0 15.6 0 15.3 0 15.13c0-1.87 1.19-4.23 3.66-5.55a5.7 5.7 0 0 1-1.48-3.83A5.8 5.8 0 0 1 8 0" fill="#1f1e27"/><path d="M11.82 5.75A3.8 3.8 0 0 1 8 9.5a3.8 3.8 0 0 1-3.82-3.75C4.18 3.68 5.9 2 8 2s3.82 1.68 3.82 3.75M2 15.13c0-1.61 1.64-4.56 6-4.56s6 2.95 6 4.56l-.01.47c-.1.72-.68 1.3-1.41 1.39l-.49.01H3.91l-.49-.01a1.6 1.6 0 0 1-1.4-1.39C2 15.5 2 15.37 2 15.13" fill="#fff"/></svg>