<svg width="100" height="60" fill="none" xmlns="http://www.w3.org/2000/svg"><path d="M98.66 26.9C90.2 19.23 67.1 0 48.8 0S22.77 12 19.94 17.41L8.06 3.95c-.57-.64-1.36-1-2.18-1H3c-1.66 0-3 1.42-3 3.2v47.7c0 1.77 1.35 3.21 3 3.21h2.87c.82 0 1.62-.37 2.18-1l11.87-13.47C22.77 47.99 31.06 60 48.8 60c17.73 0 41.4-19.23 49.87-26.9a4.25 4.25 0 0 0 0-6.2ZM48.8 8.03c13.95 0 32.59 14.31 41.57 21.97 0 0-19.54 8.42-30.97 4.5-11.35-3.9-22.37-15.39-33.1-12.38v-.38A24.34 24.34 0 0 1 48.8 8.03Z" fill="#fff"/></svg>