<svg width="50" height="50" fill="none" xmlns="http://www.w3.org/2000/svg"><path d="M25 22.5a2.5 2.5 0 1 1 0 5 2.5 2.5 0 0 1 0-5Zm2.23 6.55L30.02 34a1.1 1.1 0 0 1-.52 1.55 11.34 11.34 0 0 1-9.11-.05 1.1 1.1 0 0 1-.5-1.55l2.84-4.92a1.1 1.1 0 0 1 1.25-.5 3.57 3.57 0 0 0 1.99 0c.49-.13 1 .08 1.26.52Zm7.99-3.95h-5.7c-.5 0-.93-.35-1.05-.84a3.56 3.56 0 0 0-.99-1.72 1.1 1.1 0 0 1-.17-1.34l2.88-4.9a1.1 1.1 0 0 1 1.61-.32 11.42 11.42 0 0 1 4.51 7.9 1.1 1.1 0 0 1-1.1 1.22Zm-12.7-2.56a3.56 3.56 0 0 0-.99 1.72c-.12.49-.55.84-1.05.84h-5.7a1.1 1.1 0 0 1-1.09-1.22 11.32 11.32 0 0 1 4.51-7.9 1.1 1.1 0 0 1 1.6.32l2.9 4.9c.25.43.18.99-.18 1.34Z" fill="#fff"/><path d="M43 25a18 18 0 1 1-35.98.01A18 18 0 0 1 43 25Z" stroke="#fff" stroke-width="5" stroke-linecap="round" stroke-linejoin="round"/></svg>