<svg width="100" height="100" fill="none" xmlns="http://www.w3.org/2000/svg"><path d="M50 100A50 50 0 1 0 50 0a50 50 0 0 0 0 100Z" fill="#FFDB7D" style="fill:#ffdb7d;fill:color(display-p3 1 .8575 .4911)"/><path d="M79.9 50c0-3.18 6.19-7.64 4.99-11.34-1.24-3.82-8.89-3.76-10.7-6.24-1.8-2.48.57-9.76-2.63-12.1-3.17-2.3-9.35 2.19-12.31 1.23-2.85-.92-5.19-8.23-9.25-8.23s-6.4 7.3-9.24 8.23c-2.98.96-9.14-3.54-12.32-1.22-3.2 2.33-.82 9.6-2.64 12.1-1.79 2.45-9.45 2.43-10.69 6.23-1.2 3.7 4.98 8.16 4.98 11.34 0 3.18-6.18 7.64-4.98 11.34 1.24 3.82 8.9 3.77 10.7 6.24 1.8 2.48-.57 9.76 2.63 12.1 3.18 2.3 9.35-2.19 12.32-1.23 2.84.92 5.18 8.23 9.24 8.23 4.06 0 6.4-7.3 9.25-8.23 2.97-.96 9.13 3.54 12.31 1.22 3.21-2.33.83-9.6 2.64-12.1 1.79-2.45 9.45-2.43 10.69-6.23 1.2-3.7-4.98-8.16-4.98-11.34Zm-9.35 0A20.57 20.57 0 0 1 50 70.55 20.57 20.57 0 0 1 29.45 50 20.57 20.57 0 0 1 50 29.45 20.57 20.57 0 0 1 70.55 50Z" fill="#000"/><circle cx="50" cy="50" r="16" fill="#000"/></svg>