<svg width="200" height="200" fill="none" xmlns="http://www.w3.org/2000/svg"><g stroke="#fff" stroke-linecap="round" stroke-linejoin="round"><circle cx="100" cy="100" r="73" stroke-width="13"/><path d="M92.95 93.66c1.6 0 3.49-38.66 7.05-38.66 3.56 0 5.45 38.66 7.05 38.66 1.6 0 4.8-30.77 6.4-29.72 1.6 1.05 5.77 31.56 7.7 32.09 1.92.52 5.12-22.36 6.73-21.57 1.38.68 2.77 20.65 3.12 26.03.05.82-.5 1.57-1.38 1.97C97.6 117.15 105.5 146 100 146s2.4-28.85-29.62-43.54c-.87-.4-1.43-1.15-1.38-1.97.35-5.38 1.74-25.35 3.12-26.03 1.6-.79 4.81 22.1 6.73 21.57 1.93-.53 6.1-31.04 7.7-32.09 1.6-1.05 4.8 29.72 6.4 29.72Z" fill="#fff" style="fill:#fff;stroke:#fff;stroke-opacity:1" stroke-width="4"/></g></svg>